ISO-10303-21;
HEADER;
/* Generated by software containing ST-Developer
 * from STEP Tools, Inc. (www.steptools.com) 
 */

FILE_DESCRIPTION(
/* description */ (''),
/* implementation_level */ '2;1');

FILE_NAME(
/* name */ 'Duender Lower Outside Bracket.step',
/* time_stamp */ '2026-03-13T00:45:43-04:00',
/* author */ (''),
/* organization */ (''),
/* preprocessor_version */ 'ST-DEVELOPER v20.1',
/* originating_system */ 'Autodesk Translation Framework v14.24.0.0',
/* authorisation */ '');

FILE_SCHEMA (('AUTOMOTIVE_DESIGN { 1 0 10303 214 3 1 1 }'));
ENDSEC;

DATA;
#10=MECHANICAL_DESIGN_GEOMETRIC_PRESENTATION_REPRESENTATION('',(#13),#1607);
#11=SHAPE_REPRESENTATION_RELATIONSHIP('SRR','None',#1614,#12);
#12=ADVANCED_BREP_SHAPE_REPRESENTATION('',(#14),#1606);
#13=STYLED_ITEM('',(#1623),#14);
#14=MANIFOLD_SOLID_BREP('Body3',#895);
#15=TOROIDAL_SURFACE('',#928,72.9477199354722,2.49999);
#16=TOROIDAL_SURFACE('',#933,4.50001,2.49999);
#17=TOROIDAL_SURFACE('',#937,62.6040664008565,2.49999);
#18=B_SPLINE_CURVE_WITH_KNOTS('',3,(#1377,#1378,#1379,#1380,#1381,#1382,
#1383,#1384,#1385,#1386,#1387,#1388,#1389,#1390),.UNSPECIFIED.,.F.,.F.,
(4,2,2,2,2,2,4),(-0.465711664029736,-0.464771384123904,-0.360629871069906,
-0.260247022122458,-0.153337628694717,-0.0718355795204256,0.),
 .UNSPECIFIED.);
#19=B_SPLINE_CURVE_WITH_KNOTS('',3,(#1394,#1395,#1396,#1397,#1398,#1399,
#1400,#1401,#1402,#1403,#1404,#1405,#1406,#1407),.UNSPECIFIED.,.F.,.F.,
(4,2,2,2,2,2,4),(-0.000828611123304714,0.,0.0753746931562351,0.149610248509115,
0.255230432219375,0.345562171193493,0.429325772339912),.UNSPECIFIED.);
#20=B_SPLINE_CURVE_WITH_KNOTS('',3,(#1420,#1421,#1422,#1423,#1424,#1425,
#1426,#1427,#1428,#1429,#1430,#1431,#1432,#1433),.UNSPECIFIED.,.F.,.F.,
(4,2,2,2,2,2,4),(-0.43963820993637,-0.43878031288986,-0.3548486289367,-0.272653828592306,
-0.166482304847752,-0.0793328617747854,0.),.UNSPECIFIED.);
#21=B_SPLINE_CURVE_WITH_KNOTS('',3,(#1439,#1440,#1441,#1442,#1443,#1444,
#1445,#1446,#1447,#1448,#1449,#1450,#1451,#1452),.UNSPECIFIED.,.F.,.F.,
(4,2,2,2,2,2,4),(-0.00086329090366508,0.,0.0844593877396181,0.167170971559403,
0.274010027663635,0.361707405543655,0.441539056923693),.UNSPECIFIED.);
#22=FACE_BOUND('',#203,.T.);
#23=FACE_BOUND('',#204,.T.);
#24=FACE_BOUND('',#205,.T.);
#25=FACE_BOUND('',#206,.T.);
#26=FACE_BOUND('',#207,.T.);
#27=FACE_BOUND('',#217,.T.);
#28=FACE_BOUND('',#218,.T.);
#29=FACE_BOUND('',#219,.T.);
#30=FACE_BOUND('',#220,.T.);
#31=FACE_BOUND('',#221,.T.);
#32=FACE_BOUND('',#222,.T.);
#33=FACE_BOUND('',#225,.T.);
#34=FACE_BOUND('',#226,.T.);
#35=FACE_BOUND('',#227,.T.);
#36=FACE_BOUND('',#228,.T.);
#37=FACE_BOUND('',#229,.T.);
#38=FACE_BOUND('',#232,.T.);
#39=FACE_BOUND('',#235,.T.);
#40=FACE_BOUND('',#238,.T.);
#41=FACE_BOUND('',#241,.T.);
#42=FACE_BOUND('',#244,.T.);
#43=FACE_BOUND('',#254,.T.);
#44=FACE_BOUND('',#257,.T.);
#45=FACE_BOUND('',#260,.T.);
#46=FACE_BOUND('',#263,.T.);
#47=FACE_BOUND('',#266,.T.);
#48=FACE_BOUND('',#269,.T.);
#49=FACE_BOUND('',#279,.T.);
#50=FACE_BOUND('',#280,.T.);
#51=FACE_BOUND('',#281,.T.);
#52=FACE_BOUND('',#282,.T.);
#53=FACE_BOUND('',#283,.T.);
#54=FACE_BOUND('',#284,.T.);
#55=CIRCLE('',#911,0.75);
#56=CIRCLE('',#912,0.75);
#57=CIRCLE('',#914,4.50001);
#58=CIRCLE('',#917,70.4477299354722);
#59=CIRCLE('',#918,2.65);
#60=CIRCLE('',#919,2.65);
#61=CIRCLE('',#920,2.65);
#62=CIRCLE('',#921,2.65);
#63=CIRCLE('',#922,2.65000000000001);
#64=CIRCLE('',#924,2.49999);
#65=CIRCLE('',#925,7.);
#66=CIRCLE('',#926,2.49999);
#67=CIRCLE('',#929,72.9477199354722);
#68=CIRCLE('',#930,70.4477299354722);
#69=CIRCLE('',#932,2.49999);
#70=CIRCLE('',#934,2.49999);
#71=CIRCLE('',#935,7.);
#72=CIRCLE('',#938,60.1040764008565);
#73=CIRCLE('',#939,62.6040664008565);
#74=CIRCLE('',#942,5.);
#75=CIRCLE('',#943,5.);
#76=CIRCLE('',#944,5.);
#77=CIRCLE('',#945,5.);
#78=CIRCLE('',#946,5.);
#79=CIRCLE('',#947,5.);
#80=CIRCLE('',#950,5.);
#81=CIRCLE('',#951,5.);
#82=CIRCLE('',#952,5.);
#83=CIRCLE('',#953,5.);
#84=CIRCLE('',#954,5.);
#85=CIRCLE('',#956,2.65000000000001);
#86=CIRCLE('',#958,5.);
#87=CIRCLE('',#960,2.65);
#88=CIRCLE('',#962,5.);
#89=CIRCLE('',#964,2.65);
#90=CIRCLE('',#966,5.);
#91=CIRCLE('',#968,2.65);
#92=CIRCLE('',#970,5.);
#93=CIRCLE('',#972,2.65);
#94=CIRCLE('',#974,5.);
#95=CIRCLE('',#983,2.65);
#96=CIRCLE('',#984,2.65);
#97=CIRCLE('',#986,5.);
#98=CIRCLE('',#988,2.65);
#99=CIRCLE('',#989,2.65);
#100=CIRCLE('',#991,5.);
#101=CIRCLE('',#993,2.65);
#102=CIRCLE('',#994,2.65);
#103=CIRCLE('',#996,5.);
#104=CIRCLE('',#998,2.65000000000001);
#105=CIRCLE('',#999,2.65000000000001);
#106=CIRCLE('',#1001,5.);
#107=CIRCLE('',#1003,2.65);
#108=CIRCLE('',#1004,2.65);
#109=CIRCLE('',#1006,5.);
#110=CIRCLE('',#1008,2.65);
#111=CIRCLE('',#1009,2.65);
#112=CIRCLE('',#1011,5.);
#113=CIRCLE('',#1020,60.1040764008565);
#114=CYLINDRICAL_SURFACE('',#910,0.75);
#115=CYLINDRICAL_SURFACE('',#927,2.49999);
#116=CYLINDRICAL_SURFACE('',#931,2.49999);
#117=CYLINDRICAL_SURFACE('',#936,2.49999);
#118=CYLINDRICAL_SURFACE('',#940,2.49999);
#119=CYLINDRICAL_SURFACE('',#948,7.);
#120=CYLINDRICAL_SURFACE('',#955,2.65000000000001);
#121=CYLINDRICAL_SURFACE('',#959,2.65);
#122=CYLINDRICAL_SURFACE('',#963,2.65);
#123=CYLINDRICAL_SURFACE('',#967,2.65);
#124=CYLINDRICAL_SURFACE('',#971,2.65);
#125=CYLINDRICAL_SURFACE('',#975,5.);
#126=CYLINDRICAL_SURFACE('',#976,5.);
#127=CYLINDRICAL_SURFACE('',#977,5.);
#128=CYLINDRICAL_SURFACE('',#978,5.);
#129=CYLINDRICAL_SURFACE('',#979,5.);
#130=CYLINDRICAL_SURFACE('',#981,70.4477299354722);
#131=CYLINDRICAL_SURFACE('',#982,2.65);
#132=CYLINDRICAL_SURFACE('',#987,2.65);
#133=CYLINDRICAL_SURFACE('',#992,2.65);
#134=CYLINDRICAL_SURFACE('',#997,2.65000000000001);
#135=CYLINDRICAL_SURFACE('',#1002,2.65);
#136=CYLINDRICAL_SURFACE('',#1007,2.65);
#137=CYLINDRICAL_SURFACE('',#1012,5.);
#138=CYLINDRICAL_SURFACE('',#1013,5.);
#139=CYLINDRICAL_SURFACE('',#1014,5.);
#140=CYLINDRICAL_SURFACE('',#1015,5.);
#141=CYLINDRICAL_SURFACE('',#1016,5.);
#142=CYLINDRICAL_SURFACE('',#1017,5.);
#143=CYLINDRICAL_SURFACE('',#1019,60.1040764008565);
#144=FACE_OUTER_BOUND('',#198,.T.);
#145=FACE_OUTER_BOUND('',#199,.T.);
#146=FACE_OUTER_BOUND('',#200,.T.);
#147=FACE_OUTER_BOUND('',#201,.T.);
#148=FACE_OUTER_BOUND('',#202,.T.);
#149=FACE_OUTER_BOUND('',#208,.T.);
#150=FACE_OUTER_BOUND('',#209,.T.);
#151=FACE_OUTER_BOUND('',#210,.T.);
#152=FACE_OUTER_BOUND('',#211,.T.);
#153=FACE_OUTER_BOUND('',#212,.T.);
#154=FACE_OUTER_BOUND('',#213,.T.);
#155=FACE_OUTER_BOUND('',#214,.T.);
#156=FACE_OUTER_BOUND('',#215,.T.);
#157=FACE_OUTER_BOUND('',#216,.T.);
#158=FACE_OUTER_BOUND('',#223,.T.);
#159=FACE_OUTER_BOUND('',#224,.T.);
#160=FACE_OUTER_BOUND('',#230,.T.);
#161=FACE_OUTER_BOUND('',#231,.T.);
#162=FACE_OUTER_BOUND('',#233,.T.);
#163=FACE_OUTER_BOUND('',#234,.T.);
#164=FACE_OUTER_BOUND('',#236,.T.);
#165=FACE_OUTER_BOUND('',#237,.T.);
#166=FACE_OUTER_BOUND('',#239,.T.);
#167=FACE_OUTER_BOUND('',#240,.T.);
#168=FACE_OUTER_BOUND('',#242,.T.);
#169=FACE_OUTER_BOUND('',#243,.T.);
#170=FACE_OUTER_BOUND('',#245,.T.);
#171=FACE_OUTER_BOUND('',#246,.T.);
#172=FACE_OUTER_BOUND('',#247,.T.);
#173=FACE_OUTER_BOUND('',#248,.T.);
#174=FACE_OUTER_BOUND('',#249,.T.);
#175=FACE_OUTER_BOUND('',#250,.T.);
#176=FACE_OUTER_BOUND('',#251,.T.);
#177=FACE_OUTER_BOUND('',#252,.T.);
#178=FACE_OUTER_BOUND('',#253,.T.);
#179=FACE_OUTER_BOUND('',#255,.T.);
#180=FACE_OUTER_BOUND('',#256,.T.);
#181=FACE_OUTER_BOUND('',#258,.T.);
#182=FACE_OUTER_BOUND('',#259,.T.);
#183=FACE_OUTER_BOUND('',#261,.T.);
#184=FACE_OUTER_BOUND('',#262,.T.);
#185=FACE_OUTER_BOUND('',#264,.T.);
#186=FACE_OUTER_BOUND('',#265,.T.);
#187=FACE_OUTER_BOUND('',#267,.T.);
#188=FACE_OUTER_BOUND('',#268,.T.);
#189=FACE_OUTER_BOUND('',#270,.T.);
#190=FACE_OUTER_BOUND('',#271,.T.);
#191=FACE_OUTER_BOUND('',#272,.T.);
#192=FACE_OUTER_BOUND('',#273,.T.);
#193=FACE_OUTER_BOUND('',#274,.T.);
#194=FACE_OUTER_BOUND('',#275,.T.);
#195=FACE_OUTER_BOUND('',#276,.T.);
#196=FACE_OUTER_BOUND('',#277,.T.);
#197=FACE_OUTER_BOUND('',#278,.T.);
#198=EDGE_LOOP('',(#586,#587,#588,#589));
#199=EDGE_LOOP('',(#590,#591,#592,#593));
#200=EDGE_LOOP('',(#594,#595,#596,#597,#598,#599,#600,#601,#602,#603));
#201=EDGE_LOOP('',(#604,#605,#606,#607));
#202=EDGE_LOOP('',(#608,#609,#610,#611,#612));
#203=EDGE_LOOP('',(#613));
#204=EDGE_LOOP('',(#614));
#205=EDGE_LOOP('',(#615));
#206=EDGE_LOOP('',(#616));
#207=EDGE_LOOP('',(#617));
#208=EDGE_LOOP('',(#618,#619,#620,#621,#622,#623,#624,#625,#626,#627,#628,
#629));
#209=EDGE_LOOP('',(#630,#631,#632,#633));
#210=EDGE_LOOP('',(#634,#635,#636,#637));
#211=EDGE_LOOP('',(#638,#639,#640,#641));
#212=EDGE_LOOP('',(#642,#643,#644,#645));
#213=EDGE_LOOP('',(#646,#647,#648,#649));
#214=EDGE_LOOP('',(#650,#651,#652,#653));
#215=EDGE_LOOP('',(#654,#655,#656,#657));
#216=EDGE_LOOP('',(#658,#659,#660,#661,#662));
#217=EDGE_LOOP('',(#663));
#218=EDGE_LOOP('',(#664));
#219=EDGE_LOOP('',(#665));
#220=EDGE_LOOP('',(#666));
#221=EDGE_LOOP('',(#667));
#222=EDGE_LOOP('',(#668));
#223=EDGE_LOOP('',(#669,#670,#671,#672));
#224=EDGE_LOOP('',(#673,#674,#675,#676,#677));
#225=EDGE_LOOP('',(#678));
#226=EDGE_LOOP('',(#679));
#227=EDGE_LOOP('',(#680));
#228=EDGE_LOOP('',(#681));
#229=EDGE_LOOP('',(#682));
#230=EDGE_LOOP('',(#683,#684,#685,#686));
#231=EDGE_LOOP('',(#687));
#232=EDGE_LOOP('',(#688));
#233=EDGE_LOOP('',(#689,#690,#691,#692));
#234=EDGE_LOOP('',(#693));
#235=EDGE_LOOP('',(#694));
#236=EDGE_LOOP('',(#695,#696,#697,#698));
#237=EDGE_LOOP('',(#699));
#238=EDGE_LOOP('',(#700));
#239=EDGE_LOOP('',(#701,#702,#703,#704));
#240=EDGE_LOOP('',(#705));
#241=EDGE_LOOP('',(#706));
#242=EDGE_LOOP('',(#707,#708,#709,#710));
#243=EDGE_LOOP('',(#711));
#244=EDGE_LOOP('',(#712));
#245=EDGE_LOOP('',(#713,#714,#715,#716));
#246=EDGE_LOOP('',(#717,#718,#719,#720));
#247=EDGE_LOOP('',(#721,#722,#723,#724));
#248=EDGE_LOOP('',(#725,#726,#727,#728));
#249=EDGE_LOOP('',(#729,#730,#731,#732));
#250=EDGE_LOOP('',(#733,#734,#735,#736));
#251=EDGE_LOOP('',(#737,#738,#739,#740));
#252=EDGE_LOOP('',(#741,#742,#743,#744));
#253=EDGE_LOOP('',(#745));
#254=EDGE_LOOP('',(#746));
#255=EDGE_LOOP('',(#747,#748,#749,#750));
#256=EDGE_LOOP('',(#751));
#257=EDGE_LOOP('',(#752));
#258=EDGE_LOOP('',(#753,#754,#755,#756));
#259=EDGE_LOOP('',(#757));
#260=EDGE_LOOP('',(#758));
#261=EDGE_LOOP('',(#759,#760,#761,#762));
#262=EDGE_LOOP('',(#763));
#263=EDGE_LOOP('',(#764));
#264=EDGE_LOOP('',(#765,#766,#767,#768));
#265=EDGE_LOOP('',(#769));
#266=EDGE_LOOP('',(#770));
#267=EDGE_LOOP('',(#771,#772,#773,#774));
#268=EDGE_LOOP('',(#775));
#269=EDGE_LOOP('',(#776));
#270=EDGE_LOOP('',(#777,#778,#779,#780));
#271=EDGE_LOOP('',(#781,#782,#783,#784));
#272=EDGE_LOOP('',(#785,#786,#787,#788));
#273=EDGE_LOOP('',(#789,#790,#791,#792));
#274=EDGE_LOOP('',(#793,#794,#795,#796));
#275=EDGE_LOOP('',(#797,#798,#799,#800));
#276=EDGE_LOOP('',(#801,#802,#803,#804));
#277=EDGE_LOOP('',(#805,#806,#807,#808));
#278=EDGE_LOOP('',(#809,#810,#811,#812,#813));
#279=EDGE_LOOP('',(#814));
#280=EDGE_LOOP('',(#815));
#281=EDGE_LOOP('',(#816));
#282=EDGE_LOOP('',(#817));
#283=EDGE_LOOP('',(#818));
#284=EDGE_LOOP('',(#819));
#285=LINE('',#1308,#339);
#286=LINE('',#1310,#340);
#287=LINE('',#1312,#341);
#288=LINE('',#1313,#342);
#289=LINE('',#1318,#343);
#290=LINE('',#1322,#344);
#291=LINE('',#1324,#345);
#292=LINE('',#1326,#346);
#293=LINE('',#1330,#347);
#294=LINE('',#1332,#348);
#295=LINE('',#1334,#349);
#296=LINE('',#1335,#350);
#297=LINE('',#1338,#351);
#298=LINE('',#1339,#352);
#299=LINE('',#1342,#353);
#300=LINE('',#1344,#354);
#301=LINE('',#1358,#355);
#302=LINE('',#1360,#356);
#303=LINE('',#1364,#357);
#304=LINE('',#1368,#358);
#305=LINE('',#1371,#359);
#306=LINE('',#1374,#360);
#307=LINE('',#1376,#361);
#308=LINE('',#1411,#362);
#309=LINE('',#1419,#363);
#310=LINE('',#1454,#364);
#311=LINE('',#1455,#365);
#312=LINE('',#1457,#366);
#313=LINE('',#1471,#367);
#314=LINE('',#1486,#368);
#315=LINE('',#1493,#369);
#316=LINE('',#1500,#370);
#317=LINE('',#1507,#371);
#318=LINE('',#1514,#372);
#319=LINE('',#1519,#373);
#320=LINE('',#1521,#374);
#321=LINE('',#1523,#375);
#322=LINE('',#1525,#376);
#323=LINE('',#1527,#377);
#324=LINE('',#1529,#378);
#325=LINE('',#1535,#379);
#326=LINE('',#1544,#380);
#327=LINE('',#1553,#381);
#328=LINE('',#1562,#382);
#329=LINE('',#1571,#383);
#330=LINE('',#1580,#384);
#331=LINE('',#1586,#385);
#332=LINE('',#1588,#386);
#333=LINE('',#1590,#387);
#334=LINE('',#1592,#388);
#335=LINE('',#1594,#389);
#336=LINE('',#1596,#390);
#337=LINE('',#1599,#391);
#338=LINE('',#1600,#392);
#339=VECTOR('',#1026,10.);
#340=VECTOR('',#1027,10.);
#341=VECTOR('',#1028,10.);
#342=VECTOR('',#1029,10.);
#343=VECTOR('',#1034,10.);
#344=VECTOR('',#1039,10.);
#345=VECTOR('',#1040,10.);
#346=VECTOR('',#1041,10.);
#347=VECTOR('',#1044,10.);
#348=VECTOR('',#1045,10.);
#349=VECTOR('',#1046,10.);
#350=VECTOR('',#1047,10.);
#351=VECTOR('',#1050,10.);
#352=VECTOR('',#1051,10.);
#353=VECTOR('',#1054,10.);
#354=VECTOR('',#1055,10.);
#355=VECTOR('',#1070,10.);
#356=VECTOR('',#1071,10.);
#357=VECTOR('',#1074,10.);
#358=VECTOR('',#1077,10.);
#359=VECTOR('',#1080,10.);
#360=VECTOR('',#1083,10.);
#361=VECTOR('',#1084,10.);
#362=VECTOR('',#1093,10.);
#363=VECTOR('',#1104,10.);
#364=VECTOR('',#1113,10.);
#365=VECTOR('',#1114,10.);
#366=VECTOR('',#1117,10.);
#367=VECTOR('',#1132,10.);
#368=VECTOR('',#1149,2.65000000000001);
#369=VECTOR('',#1158,2.65);
#370=VECTOR('',#1167,2.65);
#371=VECTOR('',#1176,2.65);
#372=VECTOR('',#1185,2.65);
#373=VECTOR('',#1192,5.);
#374=VECTOR('',#1195,5.);
#375=VECTOR('',#1198,5.);
#376=VECTOR('',#1201,5.);
#377=VECTOR('',#1204,5.);
#378=VECTOR('',#1207,10.);
#379=VECTOR('',#1214,2.65);
#380=VECTOR('',#1225,2.65);
#381=VECTOR('',#1236,2.65);
#382=VECTOR('',#1247,2.65000000000001);
#383=VECTOR('',#1258,2.65);
#384=VECTOR('',#1269,2.65);
#385=VECTOR('',#1278,5.);
#386=VECTOR('',#1281,5.);
#387=VECTOR('',#1284,5.);
#388=VECTOR('',#1287,5.);
#389=VECTOR('',#1290,5.);
#390=VECTOR('',#1293,5.);
#391=VECTOR('',#1296,10.);
#392=VECTOR('',#1297,10.);
#393=VERTEX_POINT('',#1306);
#394=VERTEX_POINT('',#1307);
#395=VERTEX_POINT('',#1309);
#396=VERTEX_POINT('',#1311);
#397=VERTEX_POINT('',#1315);
#398=VERTEX_POINT('',#1317);
#399=VERTEX_POINT('',#1321);
#400=VERTEX_POINT('',#1323);
#401=VERTEX_POINT('',#1325);
#402=VERTEX_POINT('',#1327);
#403=VERTEX_POINT('',#1329);
#404=VERTEX_POINT('',#1331);
#405=VERTEX_POINT('',#1333);
#406=VERTEX_POINT('',#1337);
#407=VERTEX_POINT('',#1341);
#408=VERTEX_POINT('',#1343);
#409=VERTEX_POINT('',#1346);
#410=VERTEX_POINT('',#1348);
#411=VERTEX_POINT('',#1350);
#412=VERTEX_POINT('',#1352);
#413=VERTEX_POINT('',#1354);
#414=VERTEX_POINT('',#1357);
#415=VERTEX_POINT('',#1359);
#416=VERTEX_POINT('',#1361);
#417=VERTEX_POINT('',#1363);
#418=VERTEX_POINT('',#1365);
#419=VERTEX_POINT('',#1367);
#420=VERTEX_POINT('',#1369);
#421=VERTEX_POINT('',#1373);
#422=VERTEX_POINT('',#1375);
#423=VERTEX_POINT('',#1392);
#424=VERTEX_POINT('',#1410);
#425=VERTEX_POINT('',#1414);
#426=VERTEX_POINT('',#1418);
#427=VERTEX_POINT('',#1435);
#428=VERTEX_POINT('',#1437);
#429=VERTEX_POINT('',#1458);
#430=VERTEX_POINT('',#1460);
#431=VERTEX_POINT('',#1462);
#432=VERTEX_POINT('',#1464);
#433=VERTEX_POINT('',#1466);
#434=VERTEX_POINT('',#1468);
#435=VERTEX_POINT('',#1473);
#436=VERTEX_POINT('',#1475);
#437=VERTEX_POINT('',#1477);
#438=VERTEX_POINT('',#1479);
#439=VERTEX_POINT('',#1481);
#440=VERTEX_POINT('',#1484);
#441=VERTEX_POINT('',#1488);
#442=VERTEX_POINT('',#1491);
#443=VERTEX_POINT('',#1495);
#444=VERTEX_POINT('',#1498);
#445=VERTEX_POINT('',#1502);
#446=VERTEX_POINT('',#1505);
#447=VERTEX_POINT('',#1509);
#448=VERTEX_POINT('',#1512);
#449=VERTEX_POINT('',#1516);
#450=VERTEX_POINT('',#1532);
#451=VERTEX_POINT('',#1534);
#452=VERTEX_POINT('',#1538);
#453=VERTEX_POINT('',#1541);
#454=VERTEX_POINT('',#1543);
#455=VERTEX_POINT('',#1547);
#456=VERTEX_POINT('',#1550);
#457=VERTEX_POINT('',#1552);
#458=VERTEX_POINT('',#1556);
#459=VERTEX_POINT('',#1559);
#460=VERTEX_POINT('',#1561);
#461=VERTEX_POINT('',#1565);
#462=VERTEX_POINT('',#1568);
#463=VERTEX_POINT('',#1570);
#464=VERTEX_POINT('',#1574);
#465=VERTEX_POINT('',#1577);
#466=VERTEX_POINT('',#1579);
#467=VERTEX_POINT('',#1583);
#468=VERTEX_POINT('',#1598);
#469=EDGE_CURVE('',#393,#394,#285,.T.);
#470=EDGE_CURVE('',#394,#395,#286,.T.);
#471=EDGE_CURVE('',#395,#396,#287,.T.);
#472=EDGE_CURVE('',#396,#393,#288,.T.);
#473=EDGE_CURVE('',#397,#396,#55,.T.);
#474=EDGE_CURVE('',#398,#397,#289,.T.);
#475=EDGE_CURVE('',#393,#398,#56,.T.);
#476=EDGE_CURVE('',#395,#399,#290,.T.);
#477=EDGE_CURVE('',#399,#400,#291,.T.);
#478=EDGE_CURVE('',#401,#400,#292,.T.);
#479=EDGE_CURVE('',#402,#401,#57,.T.);
#480=EDGE_CURVE('',#403,#402,#293,.T.);
#481=EDGE_CURVE('',#404,#403,#294,.T.);
#482=EDGE_CURVE('',#405,#404,#295,.T.);
#483=EDGE_CURVE('',#397,#405,#296,.T.);
#484=EDGE_CURVE('',#405,#406,#297,.T.);
#485=EDGE_CURVE('',#406,#398,#298,.T.);
#486=EDGE_CURVE('',#407,#394,#299,.T.);
#487=EDGE_CURVE('',#407,#408,#300,.T.);
#488=EDGE_CURVE('',#408,#399,#58,.T.);
#489=EDGE_CURVE('',#409,#409,#59,.T.);
#490=EDGE_CURVE('',#410,#410,#60,.T.);
#491=EDGE_CURVE('',#411,#411,#61,.T.);
#492=EDGE_CURVE('',#412,#412,#62,.T.);
#493=EDGE_CURVE('',#413,#413,#63,.T.);
#494=EDGE_CURVE('',#414,#406,#301,.T.);
#495=EDGE_CURVE('',#414,#415,#302,.T.);
#496=EDGE_CURVE('',#416,#415,#64,.T.);
#497=EDGE_CURVE('',#416,#417,#303,.T.);
#498=EDGE_CURVE('',#417,#418,#65,.T.);
#499=EDGE_CURVE('',#419,#418,#304,.T.);
#500=EDGE_CURVE('',#420,#419,#66,.T.);
#501=EDGE_CURVE('',#407,#420,#305,.T.);
#502=EDGE_CURVE('',#421,#420,#306,.T.);
#503=EDGE_CURVE('',#419,#422,#307,.T.);
#504=EDGE_CURVE('',#422,#421,#18,.T.);
#505=EDGE_CURVE('',#422,#423,#67,.T.);
#506=EDGE_CURVE('',#423,#400,#19,.T.);
#507=EDGE_CURVE('',#400,#421,#68,.T.);
#508=EDGE_CURVE('',#423,#424,#308,.T.);
#509=EDGE_CURVE('',#424,#401,#69,.T.);
#510=EDGE_CURVE('',#425,#402,#70,.T.);
#511=EDGE_CURVE('',#424,#425,#71,.T.);
#512=EDGE_CURVE('',#425,#426,#309,.T.);
#513=EDGE_CURVE('',#426,#403,#20,.T.);
#514=EDGE_CURVE('',#427,#403,#72,.T.);
#515=EDGE_CURVE('',#426,#428,#73,.T.);
#516=EDGE_CURVE('',#428,#427,#21,.T.);
#517=EDGE_CURVE('',#428,#416,#310,.T.);
#518=EDGE_CURVE('',#415,#427,#311,.T.);
#519=EDGE_CURVE('',#417,#425,#312,.T.);
#520=EDGE_CURVE('',#429,#429,#74,.T.);
#521=EDGE_CURVE('',#430,#430,#75,.T.);
#522=EDGE_CURVE('',#431,#431,#76,.T.);
#523=EDGE_CURVE('',#432,#432,#77,.T.);
#524=EDGE_CURVE('',#433,#433,#78,.T.);
#525=EDGE_CURVE('',#434,#434,#79,.T.);
#526=EDGE_CURVE('',#418,#424,#313,.T.);
#527=EDGE_CURVE('',#435,#435,#80,.T.);
#528=EDGE_CURVE('',#436,#436,#81,.T.);
#529=EDGE_CURVE('',#437,#437,#82,.T.);
#530=EDGE_CURVE('',#438,#438,#83,.T.);
#531=EDGE_CURVE('',#439,#439,#84,.T.);
#532=EDGE_CURVE('',#440,#440,#85,.T.);
#533=EDGE_CURVE('',#440,#413,#314,.T.);
#534=EDGE_CURVE('',#441,#441,#86,.T.);
#535=EDGE_CURVE('',#442,#442,#87,.T.);
#536=EDGE_CURVE('',#442,#412,#315,.T.);
#537=EDGE_CURVE('',#443,#443,#88,.T.);
#538=EDGE_CURVE('',#444,#444,#89,.T.);
#539=EDGE_CURVE('',#444,#411,#316,.T.);
#540=EDGE_CURVE('',#445,#445,#90,.T.);
#541=EDGE_CURVE('',#446,#446,#91,.T.);
#542=EDGE_CURVE('',#446,#410,#317,.T.);
#543=EDGE_CURVE('',#447,#447,#92,.T.);
#544=EDGE_CURVE('',#448,#448,#93,.T.);
#545=EDGE_CURVE('',#448,#409,#318,.T.);
#546=EDGE_CURVE('',#449,#449,#94,.T.);
#547=EDGE_CURVE('',#435,#445,#319,.T.);
#548=EDGE_CURVE('',#436,#447,#320,.T.);
#549=EDGE_CURVE('',#437,#443,#321,.T.);
#550=EDGE_CURVE('',#438,#449,#322,.T.);
#551=EDGE_CURVE('',#439,#441,#323,.T.);
#552=EDGE_CURVE('',#408,#421,#324,.T.);
#553=EDGE_CURVE('',#450,#450,#95,.T.);
#554=EDGE_CURVE('',#450,#451,#325,.T.);
#555=EDGE_CURVE('',#451,#451,#96,.T.);
#556=EDGE_CURVE('',#452,#452,#97,.T.);
#557=EDGE_CURVE('',#453,#453,#98,.T.);
#558=EDGE_CURVE('',#453,#454,#326,.T.);
#559=EDGE_CURVE('',#454,#454,#99,.T.);
#560=EDGE_CURVE('',#455,#455,#100,.T.);
#561=EDGE_CURVE('',#456,#456,#101,.T.);
#562=EDGE_CURVE('',#456,#457,#327,.T.);
#563=EDGE_CURVE('',#457,#457,#102,.T.);
#564=EDGE_CURVE('',#458,#458,#103,.T.);
#565=EDGE_CURVE('',#459,#459,#104,.T.);
#566=EDGE_CURVE('',#459,#460,#328,.T.);
#567=EDGE_CURVE('',#460,#460,#105,.T.);
#568=EDGE_CURVE('',#461,#461,#106,.T.);
#569=EDGE_CURVE('',#462,#462,#107,.T.);
#570=EDGE_CURVE('',#462,#463,#329,.T.);
#571=EDGE_CURVE('',#463,#463,#108,.T.);
#572=EDGE_CURVE('',#464,#464,#109,.T.);
#573=EDGE_CURVE('',#465,#465,#110,.T.);
#574=EDGE_CURVE('',#465,#466,#330,.T.);
#575=EDGE_CURVE('',#466,#466,#111,.T.);
#576=EDGE_CURVE('',#467,#467,#112,.T.);
#577=EDGE_CURVE('',#429,#461,#331,.T.);
#578=EDGE_CURVE('',#430,#464,#332,.T.);
#579=EDGE_CURVE('',#431,#455,#333,.T.);
#580=EDGE_CURVE('',#432,#467,#334,.T.);
#581=EDGE_CURVE('',#433,#458,#335,.T.);
#582=EDGE_CURVE('',#434,#452,#336,.T.);
#583=EDGE_CURVE('',#414,#468,#337,.T.);
#584=EDGE_CURVE('',#468,#427,#338,.T.);
#585=EDGE_CURVE('',#468,#404,#113,.T.);
#586=ORIENTED_EDGE('',*,*,#469,.T.);
#587=ORIENTED_EDGE('',*,*,#470,.T.);
#588=ORIENTED_EDGE('',*,*,#471,.T.);
#589=ORIENTED_EDGE('',*,*,#472,.T.);
#590=ORIENTED_EDGE('',*,*,#472,.F.);
#591=ORIENTED_EDGE('',*,*,#473,.F.);
#592=ORIENTED_EDGE('',*,*,#474,.F.);
#593=ORIENTED_EDGE('',*,*,#475,.F.);
#594=ORIENTED_EDGE('',*,*,#471,.F.);
#595=ORIENTED_EDGE('',*,*,#476,.T.);
#596=ORIENTED_EDGE('',*,*,#477,.T.);
#597=ORIENTED_EDGE('',*,*,#478,.F.);
#598=ORIENTED_EDGE('',*,*,#479,.F.);
#599=ORIENTED_EDGE('',*,*,#480,.F.);
#600=ORIENTED_EDGE('',*,*,#481,.F.);
#601=ORIENTED_EDGE('',*,*,#482,.F.);
#602=ORIENTED_EDGE('',*,*,#483,.F.);
#603=ORIENTED_EDGE('',*,*,#473,.T.);
#604=ORIENTED_EDGE('',*,*,#483,.T.);
#605=ORIENTED_EDGE('',*,*,#484,.T.);
#606=ORIENTED_EDGE('',*,*,#485,.T.);
#607=ORIENTED_EDGE('',*,*,#474,.T.);
#608=ORIENTED_EDGE('',*,*,#470,.F.);
#609=ORIENTED_EDGE('',*,*,#486,.F.);
#610=ORIENTED_EDGE('',*,*,#487,.T.);
#611=ORIENTED_EDGE('',*,*,#488,.T.);
#612=ORIENTED_EDGE('',*,*,#476,.F.);
#613=ORIENTED_EDGE('',*,*,#489,.F.);
#614=ORIENTED_EDGE('',*,*,#490,.F.);
#615=ORIENTED_EDGE('',*,*,#491,.F.);
#616=ORIENTED_EDGE('',*,*,#492,.F.);
#617=ORIENTED_EDGE('',*,*,#493,.F.);
#618=ORIENTED_EDGE('',*,*,#469,.F.);
#619=ORIENTED_EDGE('',*,*,#475,.T.);
#620=ORIENTED_EDGE('',*,*,#485,.F.);
#621=ORIENTED_EDGE('',*,*,#494,.F.);
#622=ORIENTED_EDGE('',*,*,#495,.T.);
#623=ORIENTED_EDGE('',*,*,#496,.F.);
#624=ORIENTED_EDGE('',*,*,#497,.T.);
#625=ORIENTED_EDGE('',*,*,#498,.T.);
#626=ORIENTED_EDGE('',*,*,#499,.F.);
#627=ORIENTED_EDGE('',*,*,#500,.F.);
#628=ORIENTED_EDGE('',*,*,#501,.F.);
#629=ORIENTED_EDGE('',*,*,#486,.T.);
#630=ORIENTED_EDGE('',*,*,#502,.T.);
#631=ORIENTED_EDGE('',*,*,#500,.T.);
#632=ORIENTED_EDGE('',*,*,#503,.T.);
#633=ORIENTED_EDGE('',*,*,#504,.T.);
#634=ORIENTED_EDGE('',*,*,#505,.T.);
#635=ORIENTED_EDGE('',*,*,#506,.T.);
#636=ORIENTED_EDGE('',*,*,#507,.T.);
#637=ORIENTED_EDGE('',*,*,#504,.F.);
#638=ORIENTED_EDGE('',*,*,#508,.T.);
#639=ORIENTED_EDGE('',*,*,#509,.T.);
#640=ORIENTED_EDGE('',*,*,#478,.T.);
#641=ORIENTED_EDGE('',*,*,#506,.F.);
#642=ORIENTED_EDGE('',*,*,#510,.T.);
#643=ORIENTED_EDGE('',*,*,#479,.T.);
#644=ORIENTED_EDGE('',*,*,#509,.F.);
#645=ORIENTED_EDGE('',*,*,#511,.T.);
#646=ORIENTED_EDGE('',*,*,#480,.T.);
#647=ORIENTED_EDGE('',*,*,#510,.F.);
#648=ORIENTED_EDGE('',*,*,#512,.T.);
#649=ORIENTED_EDGE('',*,*,#513,.T.);
#650=ORIENTED_EDGE('',*,*,#514,.T.);
#651=ORIENTED_EDGE('',*,*,#513,.F.);
#652=ORIENTED_EDGE('',*,*,#515,.T.);
#653=ORIENTED_EDGE('',*,*,#516,.T.);
#654=ORIENTED_EDGE('',*,*,#517,.T.);
#655=ORIENTED_EDGE('',*,*,#496,.T.);
#656=ORIENTED_EDGE('',*,*,#518,.T.);
#657=ORIENTED_EDGE('',*,*,#516,.F.);
#658=ORIENTED_EDGE('',*,*,#517,.F.);
#659=ORIENTED_EDGE('',*,*,#515,.F.);
#660=ORIENTED_EDGE('',*,*,#512,.F.);
#661=ORIENTED_EDGE('',*,*,#519,.F.);
#662=ORIENTED_EDGE('',*,*,#497,.F.);
#663=ORIENTED_EDGE('',*,*,#520,.F.);
#664=ORIENTED_EDGE('',*,*,#521,.F.);
#665=ORIENTED_EDGE('',*,*,#522,.F.);
#666=ORIENTED_EDGE('',*,*,#523,.F.);
#667=ORIENTED_EDGE('',*,*,#524,.F.);
#668=ORIENTED_EDGE('',*,*,#525,.F.);
#669=ORIENTED_EDGE('',*,*,#511,.F.);
#670=ORIENTED_EDGE('',*,*,#526,.F.);
#671=ORIENTED_EDGE('',*,*,#498,.F.);
#672=ORIENTED_EDGE('',*,*,#519,.T.);
#673=ORIENTED_EDGE('',*,*,#508,.F.);
#674=ORIENTED_EDGE('',*,*,#505,.F.);
#675=ORIENTED_EDGE('',*,*,#503,.F.);
#676=ORIENTED_EDGE('',*,*,#499,.T.);
#677=ORIENTED_EDGE('',*,*,#526,.T.);
#678=ORIENTED_EDGE('',*,*,#527,.T.);
#679=ORIENTED_EDGE('',*,*,#528,.T.);
#680=ORIENTED_EDGE('',*,*,#529,.T.);
#681=ORIENTED_EDGE('',*,*,#530,.T.);
#682=ORIENTED_EDGE('',*,*,#531,.T.);
#683=ORIENTED_EDGE('',*,*,#532,.F.);
#684=ORIENTED_EDGE('',*,*,#533,.T.);
#685=ORIENTED_EDGE('',*,*,#493,.T.);
#686=ORIENTED_EDGE('',*,*,#533,.F.);
#687=ORIENTED_EDGE('',*,*,#534,.F.);
#688=ORIENTED_EDGE('',*,*,#532,.T.);
#689=ORIENTED_EDGE('',*,*,#535,.F.);
#690=ORIENTED_EDGE('',*,*,#536,.T.);
#691=ORIENTED_EDGE('',*,*,#492,.T.);
#692=ORIENTED_EDGE('',*,*,#536,.F.);
#693=ORIENTED_EDGE('',*,*,#537,.F.);
#694=ORIENTED_EDGE('',*,*,#535,.T.);
#695=ORIENTED_EDGE('',*,*,#538,.F.);
#696=ORIENTED_EDGE('',*,*,#539,.T.);
#697=ORIENTED_EDGE('',*,*,#491,.T.);
#698=ORIENTED_EDGE('',*,*,#539,.F.);
#699=ORIENTED_EDGE('',*,*,#540,.F.);
#700=ORIENTED_EDGE('',*,*,#538,.T.);
#701=ORIENTED_EDGE('',*,*,#541,.F.);
#702=ORIENTED_EDGE('',*,*,#542,.T.);
#703=ORIENTED_EDGE('',*,*,#490,.T.);
#704=ORIENTED_EDGE('',*,*,#542,.F.);
#705=ORIENTED_EDGE('',*,*,#543,.F.);
#706=ORIENTED_EDGE('',*,*,#541,.T.);
#707=ORIENTED_EDGE('',*,*,#544,.F.);
#708=ORIENTED_EDGE('',*,*,#545,.T.);
#709=ORIENTED_EDGE('',*,*,#489,.T.);
#710=ORIENTED_EDGE('',*,*,#545,.F.);
#711=ORIENTED_EDGE('',*,*,#546,.F.);
#712=ORIENTED_EDGE('',*,*,#544,.T.);
#713=ORIENTED_EDGE('',*,*,#527,.F.);
#714=ORIENTED_EDGE('',*,*,#547,.T.);
#715=ORIENTED_EDGE('',*,*,#540,.T.);
#716=ORIENTED_EDGE('',*,*,#547,.F.);
#717=ORIENTED_EDGE('',*,*,#528,.F.);
#718=ORIENTED_EDGE('',*,*,#548,.T.);
#719=ORIENTED_EDGE('',*,*,#543,.T.);
#720=ORIENTED_EDGE('',*,*,#548,.F.);
#721=ORIENTED_EDGE('',*,*,#529,.F.);
#722=ORIENTED_EDGE('',*,*,#549,.T.);
#723=ORIENTED_EDGE('',*,*,#537,.T.);
#724=ORIENTED_EDGE('',*,*,#549,.F.);
#725=ORIENTED_EDGE('',*,*,#530,.F.);
#726=ORIENTED_EDGE('',*,*,#550,.T.);
#727=ORIENTED_EDGE('',*,*,#546,.T.);
#728=ORIENTED_EDGE('',*,*,#550,.F.);
#729=ORIENTED_EDGE('',*,*,#531,.F.);
#730=ORIENTED_EDGE('',*,*,#551,.T.);
#731=ORIENTED_EDGE('',*,*,#534,.T.);
#732=ORIENTED_EDGE('',*,*,#551,.F.);
#733=ORIENTED_EDGE('',*,*,#502,.F.);
#734=ORIENTED_EDGE('',*,*,#552,.F.);
#735=ORIENTED_EDGE('',*,*,#487,.F.);
#736=ORIENTED_EDGE('',*,*,#501,.T.);
#737=ORIENTED_EDGE('',*,*,#507,.F.);
#738=ORIENTED_EDGE('',*,*,#477,.F.);
#739=ORIENTED_EDGE('',*,*,#488,.F.);
#740=ORIENTED_EDGE('',*,*,#552,.T.);
#741=ORIENTED_EDGE('',*,*,#553,.T.);
#742=ORIENTED_EDGE('',*,*,#554,.T.);
#743=ORIENTED_EDGE('',*,*,#555,.F.);
#744=ORIENTED_EDGE('',*,*,#554,.F.);
#745=ORIENTED_EDGE('',*,*,#556,.T.);
#746=ORIENTED_EDGE('',*,*,#553,.F.);
#747=ORIENTED_EDGE('',*,*,#557,.T.);
#748=ORIENTED_EDGE('',*,*,#558,.T.);
#749=ORIENTED_EDGE('',*,*,#559,.F.);
#750=ORIENTED_EDGE('',*,*,#558,.F.);
#751=ORIENTED_EDGE('',*,*,#560,.T.);
#752=ORIENTED_EDGE('',*,*,#557,.F.);
#753=ORIENTED_EDGE('',*,*,#561,.T.);
#754=ORIENTED_EDGE('',*,*,#562,.T.);
#755=ORIENTED_EDGE('',*,*,#563,.F.);
#756=ORIENTED_EDGE('',*,*,#562,.F.);
#757=ORIENTED_EDGE('',*,*,#564,.T.);
#758=ORIENTED_EDGE('',*,*,#561,.F.);
#759=ORIENTED_EDGE('',*,*,#565,.T.);
#760=ORIENTED_EDGE('',*,*,#566,.T.);
#761=ORIENTED_EDGE('',*,*,#567,.F.);
#762=ORIENTED_EDGE('',*,*,#566,.F.);
#763=ORIENTED_EDGE('',*,*,#568,.T.);
#764=ORIENTED_EDGE('',*,*,#565,.F.);
#765=ORIENTED_EDGE('',*,*,#569,.T.);
#766=ORIENTED_EDGE('',*,*,#570,.T.);
#767=ORIENTED_EDGE('',*,*,#571,.F.);
#768=ORIENTED_EDGE('',*,*,#570,.F.);
#769=ORIENTED_EDGE('',*,*,#572,.T.);
#770=ORIENTED_EDGE('',*,*,#569,.F.);
#771=ORIENTED_EDGE('',*,*,#573,.T.);
#772=ORIENTED_EDGE('',*,*,#574,.T.);
#773=ORIENTED_EDGE('',*,*,#575,.F.);
#774=ORIENTED_EDGE('',*,*,#574,.F.);
#775=ORIENTED_EDGE('',*,*,#576,.T.);
#776=ORIENTED_EDGE('',*,*,#573,.F.);
#777=ORIENTED_EDGE('',*,*,#520,.T.);
#778=ORIENTED_EDGE('',*,*,#577,.T.);
#779=ORIENTED_EDGE('',*,*,#568,.F.);
#780=ORIENTED_EDGE('',*,*,#577,.F.);
#781=ORIENTED_EDGE('',*,*,#521,.T.);
#782=ORIENTED_EDGE('',*,*,#578,.T.);
#783=ORIENTED_EDGE('',*,*,#572,.F.);
#784=ORIENTED_EDGE('',*,*,#578,.F.);
#785=ORIENTED_EDGE('',*,*,#522,.T.);
#786=ORIENTED_EDGE('',*,*,#579,.T.);
#787=ORIENTED_EDGE('',*,*,#560,.F.);
#788=ORIENTED_EDGE('',*,*,#579,.F.);
#789=ORIENTED_EDGE('',*,*,#523,.T.);
#790=ORIENTED_EDGE('',*,*,#580,.T.);
#791=ORIENTED_EDGE('',*,*,#576,.F.);
#792=ORIENTED_EDGE('',*,*,#580,.F.);
#793=ORIENTED_EDGE('',*,*,#524,.T.);
#794=ORIENTED_EDGE('',*,*,#581,.T.);
#795=ORIENTED_EDGE('',*,*,#564,.F.);
#796=ORIENTED_EDGE('',*,*,#581,.F.);
#797=ORIENTED_EDGE('',*,*,#525,.T.);
#798=ORIENTED_EDGE('',*,*,#582,.T.);
#799=ORIENTED_EDGE('',*,*,#556,.F.);
#800=ORIENTED_EDGE('',*,*,#582,.F.);
#801=ORIENTED_EDGE('',*,*,#518,.F.);
#802=ORIENTED_EDGE('',*,*,#495,.F.);
#803=ORIENTED_EDGE('',*,*,#583,.T.);
#804=ORIENTED_EDGE('',*,*,#584,.T.);
#805=ORIENTED_EDGE('',*,*,#514,.F.);
#806=ORIENTED_EDGE('',*,*,#584,.F.);
#807=ORIENTED_EDGE('',*,*,#585,.T.);
#808=ORIENTED_EDGE('',*,*,#481,.T.);
#809=ORIENTED_EDGE('',*,*,#484,.F.);
#810=ORIENTED_EDGE('',*,*,#482,.T.);
#811=ORIENTED_EDGE('',*,*,#585,.F.);
#812=ORIENTED_EDGE('',*,*,#583,.F.);
#813=ORIENTED_EDGE('',*,*,#494,.T.);
#814=ORIENTED_EDGE('',*,*,#555,.T.);
#815=ORIENTED_EDGE('',*,*,#559,.T.);
#816=ORIENTED_EDGE('',*,*,#563,.T.);
#817=ORIENTED_EDGE('',*,*,#567,.T.);
#818=ORIENTED_EDGE('',*,*,#571,.T.);
#819=ORIENTED_EDGE('',*,*,#575,.T.);
#820=PLANE('',#909);
#821=PLANE('',#913);
#822=PLANE('',#915);
#823=PLANE('',#916);
#824=PLANE('',#923);
#825=PLANE('',#941);
#826=PLANE('',#949);
#827=PLANE('',#957);
#828=PLANE('',#961);
#829=PLANE('',#965);
#830=PLANE('',#969);
#831=PLANE('',#973);
#832=PLANE('',#980);
#833=PLANE('',#985);
#834=PLANE('',#990);
#835=PLANE('',#995);
#836=PLANE('',#1000);
#837=PLANE('',#1005);
#838=PLANE('',#1010);
#839=PLANE('',#1018);
#840=PLANE('',#1021);
#841=ADVANCED_FACE('',(#144),#820,.T.);
#842=ADVANCED_FACE('',(#145),#114,.F.);
#843=ADVANCED_FACE('',(#146),#821,.F.);
#844=ADVANCED_FACE('',(#147),#822,.T.);
#845=ADVANCED_FACE('',(#148,#22,#23,#24,#25,#26),#823,.F.);
#846=ADVANCED_FACE('',(#149),#824,.F.);
#847=ADVANCED_FACE('',(#150),#115,.T.);
#848=ADVANCED_FACE('',(#151),#15,.T.);
#849=ADVANCED_FACE('',(#152),#116,.T.);
#850=ADVANCED_FACE('',(#153),#16,.T.);
#851=ADVANCED_FACE('',(#154),#117,.T.);
#852=ADVANCED_FACE('',(#155),#17,.T.);
#853=ADVANCED_FACE('',(#156),#118,.T.);
#854=ADVANCED_FACE('',(#157,#27,#28,#29,#30,#31,#32),#825,.F.);
#855=ADVANCED_FACE('',(#158),#119,.T.);
#856=ADVANCED_FACE('',(#159,#33,#34,#35,#36,#37),#826,.T.);
#857=ADVANCED_FACE('',(#160),#120,.F.);
#858=ADVANCED_FACE('',(#161,#38),#827,.T.);
#859=ADVANCED_FACE('',(#162),#121,.F.);
#860=ADVANCED_FACE('',(#163,#39),#828,.T.);
#861=ADVANCED_FACE('',(#164),#122,.F.);
#862=ADVANCED_FACE('',(#165,#40),#829,.T.);
#863=ADVANCED_FACE('',(#166),#123,.F.);
#864=ADVANCED_FACE('',(#167,#41),#830,.T.);
#865=ADVANCED_FACE('',(#168),#124,.F.);
#866=ADVANCED_FACE('',(#169,#42),#831,.T.);
#867=ADVANCED_FACE('',(#170),#125,.F.);
#868=ADVANCED_FACE('',(#171),#126,.F.);
#869=ADVANCED_FACE('',(#172),#127,.F.);
#870=ADVANCED_FACE('',(#173),#128,.F.);
#871=ADVANCED_FACE('',(#174),#129,.F.);
#872=ADVANCED_FACE('',(#175),#832,.T.);
#873=ADVANCED_FACE('',(#176),#130,.F.);
#874=ADVANCED_FACE('',(#177),#131,.F.);
#875=ADVANCED_FACE('',(#178,#43),#833,.F.);
#876=ADVANCED_FACE('',(#179),#132,.F.);
#877=ADVANCED_FACE('',(#180,#44),#834,.F.);
#878=ADVANCED_FACE('',(#181),#133,.F.);
#879=ADVANCED_FACE('',(#182,#45),#835,.F.);
#880=ADVANCED_FACE('',(#183),#134,.F.);
#881=ADVANCED_FACE('',(#184,#46),#836,.F.);
#882=ADVANCED_FACE('',(#185),#135,.F.);
#883=ADVANCED_FACE('',(#186,#47),#837,.F.);
#884=ADVANCED_FACE('',(#187),#136,.F.);
#885=ADVANCED_FACE('',(#188,#48),#838,.F.);
#886=ADVANCED_FACE('',(#189),#137,.F.);
#887=ADVANCED_FACE('',(#190),#138,.F.);
#888=ADVANCED_FACE('',(#191),#139,.F.);
#889=ADVANCED_FACE('',(#192),#140,.F.);
#890=ADVANCED_FACE('',(#193),#141,.F.);
#891=ADVANCED_FACE('',(#194),#142,.F.);
#892=ADVANCED_FACE('',(#195),#839,.F.);
#893=ADVANCED_FACE('',(#196),#143,.F.);
#894=ADVANCED_FACE('',(#197,#49,#50,#51,#52,#53,#54),#840,.T.);
#895=CLOSED_SHELL('',(#841,#842,#843,#844,#845,#846,#847,#848,#849,#850,
#851,#852,#853,#854,#855,#856,#857,#858,#859,#860,#861,#862,#863,#864,#865,
#866,#867,#868,#869,#870,#871,#872,#873,#874,#875,#876,#877,#878,#879,#880,
#881,#882,#883,#884,#885,#886,#887,#888,#889,#890,#891,#892,#893,#894));
#896=DERIVED_UNIT_ELEMENT(#898,1.);
#897=DERIVED_UNIT_ELEMENT(#1609,-3.);
#898=(
MASS_UNIT()
NAMED_UNIT(*)
SI_UNIT(.KILO.,.GRAM.)
);
#899=DERIVED_UNIT((#896,#897));
#900=MEASURE_REPRESENTATION_ITEM('density measure',
POSITIVE_RATIO_MEASURE(7850.),#899);
#901=PROPERTY_DEFINITION_REPRESENTATION(#906,#903);
#902=PROPERTY_DEFINITION_REPRESENTATION(#907,#904);
#903=REPRESENTATION('material name',(#905),#1606);
#904=REPRESENTATION('density',(#900),#1606);
#905=DESCRIPTIVE_REPRESENTATION_ITEM('Steel','Steel');
#906=PROPERTY_DEFINITION('material property','material name',#1616);
#907=PROPERTY_DEFINITION('material property','density of part',#1616);
#908=AXIS2_PLACEMENT_3D('',#1304,#1022,#1023);
#909=AXIS2_PLACEMENT_3D('',#1305,#1024,#1025);
#910=AXIS2_PLACEMENT_3D('',#1314,#1030,#1031);
#911=AXIS2_PLACEMENT_3D('',#1316,#1032,#1033);
#912=AXIS2_PLACEMENT_3D('',#1319,#1035,#1036);
#913=AXIS2_PLACEMENT_3D('',#1320,#1037,#1038);
#914=AXIS2_PLACEMENT_3D('',#1328,#1042,#1043);
#915=AXIS2_PLACEMENT_3D('',#1336,#1048,#1049);
#916=AXIS2_PLACEMENT_3D('',#1340,#1052,#1053);
#917=AXIS2_PLACEMENT_3D('',#1345,#1056,#1057);
#918=AXIS2_PLACEMENT_3D('',#1347,#1058,#1059);
#919=AXIS2_PLACEMENT_3D('',#1349,#1060,#1061);
#920=AXIS2_PLACEMENT_3D('',#1351,#1062,#1063);
#921=AXIS2_PLACEMENT_3D('',#1353,#1064,#1065);
#922=AXIS2_PLACEMENT_3D('',#1355,#1066,#1067);
#923=AXIS2_PLACEMENT_3D('',#1356,#1068,#1069);
#924=AXIS2_PLACEMENT_3D('',#1362,#1072,#1073);
#925=AXIS2_PLACEMENT_3D('',#1366,#1075,#1076);
#926=AXIS2_PLACEMENT_3D('',#1370,#1078,#1079);
#927=AXIS2_PLACEMENT_3D('',#1372,#1081,#1082);
#928=AXIS2_PLACEMENT_3D('',#1391,#1085,#1086);
#929=AXIS2_PLACEMENT_3D('',#1393,#1087,#1088);
#930=AXIS2_PLACEMENT_3D('',#1408,#1089,#1090);
#931=AXIS2_PLACEMENT_3D('',#1409,#1091,#1092);
#932=AXIS2_PLACEMENT_3D('',#1412,#1094,#1095);
#933=AXIS2_PLACEMENT_3D('',#1413,#1096,#1097);
#934=AXIS2_PLACEMENT_3D('',#1415,#1098,#1099);
#935=AXIS2_PLACEMENT_3D('',#1416,#1100,#1101);
#936=AXIS2_PLACEMENT_3D('',#1417,#1102,#1103);
#937=AXIS2_PLACEMENT_3D('',#1434,#1105,#1106);
#938=AXIS2_PLACEMENT_3D('',#1436,#1107,#1108);
#939=AXIS2_PLACEMENT_3D('',#1438,#1109,#1110);
#940=AXIS2_PLACEMENT_3D('',#1453,#1111,#1112);
#941=AXIS2_PLACEMENT_3D('',#1456,#1115,#1116);
#942=AXIS2_PLACEMENT_3D('',#1459,#1118,#1119);
#943=AXIS2_PLACEMENT_3D('',#1461,#1120,#1121);
#944=AXIS2_PLACEMENT_3D('',#1463,#1122,#1123);
#945=AXIS2_PLACEMENT_3D('',#1465,#1124,#1125);
#946=AXIS2_PLACEMENT_3D('',#1467,#1126,#1127);
#947=AXIS2_PLACEMENT_3D('',#1469,#1128,#1129);
#948=AXIS2_PLACEMENT_3D('',#1470,#1130,#1131);
#949=AXIS2_PLACEMENT_3D('',#1472,#1133,#1134);
#950=AXIS2_PLACEMENT_3D('',#1474,#1135,#1136);
#951=AXIS2_PLACEMENT_3D('',#1476,#1137,#1138);
#952=AXIS2_PLACEMENT_3D('',#1478,#1139,#1140);
#953=AXIS2_PLACEMENT_3D('',#1480,#1141,#1142);
#954=AXIS2_PLACEMENT_3D('',#1482,#1143,#1144);
#955=AXIS2_PLACEMENT_3D('',#1483,#1145,#1146);
#956=AXIS2_PLACEMENT_3D('',#1485,#1147,#1148);
#957=AXIS2_PLACEMENT_3D('',#1487,#1150,#1151);
#958=AXIS2_PLACEMENT_3D('',#1489,#1152,#1153);
#959=AXIS2_PLACEMENT_3D('',#1490,#1154,#1155);
#960=AXIS2_PLACEMENT_3D('',#1492,#1156,#1157);
#961=AXIS2_PLACEMENT_3D('',#1494,#1159,#1160);
#962=AXIS2_PLACEMENT_3D('',#1496,#1161,#1162);
#963=AXIS2_PLACEMENT_3D('',#1497,#1163,#1164);
#964=AXIS2_PLACEMENT_3D('',#1499,#1165,#1166);
#965=AXIS2_PLACEMENT_3D('',#1501,#1168,#1169);
#966=AXIS2_PLACEMENT_3D('',#1503,#1170,#1171);
#967=AXIS2_PLACEMENT_3D('',#1504,#1172,#1173);
#968=AXIS2_PLACEMENT_3D('',#1506,#1174,#1175);
#969=AXIS2_PLACEMENT_3D('',#1508,#1177,#1178);
#970=AXIS2_PLACEMENT_3D('',#1510,#1179,#1180);
#971=AXIS2_PLACEMENT_3D('',#1511,#1181,#1182);
#972=AXIS2_PLACEMENT_3D('',#1513,#1183,#1184);
#973=AXIS2_PLACEMENT_3D('',#1515,#1186,#1187);
#974=AXIS2_PLACEMENT_3D('',#1517,#1188,#1189);
#975=AXIS2_PLACEMENT_3D('',#1518,#1190,#1191);
#976=AXIS2_PLACEMENT_3D('',#1520,#1193,#1194);
#977=AXIS2_PLACEMENT_3D('',#1522,#1196,#1197);
#978=AXIS2_PLACEMENT_3D('',#1524,#1199,#1200);
#979=AXIS2_PLACEMENT_3D('',#1526,#1202,#1203);
#980=AXIS2_PLACEMENT_3D('',#1528,#1205,#1206);
#981=AXIS2_PLACEMENT_3D('',#1530,#1208,#1209);
#982=AXIS2_PLACEMENT_3D('',#1531,#1210,#1211);
#983=AXIS2_PLACEMENT_3D('',#1533,#1212,#1213);
#984=AXIS2_PLACEMENT_3D('',#1536,#1215,#1216);
#985=AXIS2_PLACEMENT_3D('',#1537,#1217,#1218);
#986=AXIS2_PLACEMENT_3D('',#1539,#1219,#1220);
#987=AXIS2_PLACEMENT_3D('',#1540,#1221,#1222);
#988=AXIS2_PLACEMENT_3D('',#1542,#1223,#1224);
#989=AXIS2_PLACEMENT_3D('',#1545,#1226,#1227);
#990=AXIS2_PLACEMENT_3D('',#1546,#1228,#1229);
#991=AXIS2_PLACEMENT_3D('',#1548,#1230,#1231);
#992=AXIS2_PLACEMENT_3D('',#1549,#1232,#1233);
#993=AXIS2_PLACEMENT_3D('',#1551,#1234,#1235);
#994=AXIS2_PLACEMENT_3D('',#1554,#1237,#1238);
#995=AXIS2_PLACEMENT_3D('',#1555,#1239,#1240);
#996=AXIS2_PLACEMENT_3D('',#1557,#1241,#1242);
#997=AXIS2_PLACEMENT_3D('',#1558,#1243,#1244);
#998=AXIS2_PLACEMENT_3D('',#1560,#1245,#1246);
#999=AXIS2_PLACEMENT_3D('',#1563,#1248,#1249);
#1000=AXIS2_PLACEMENT_3D('',#1564,#1250,#1251);
#1001=AXIS2_PLACEMENT_3D('',#1566,#1252,#1253);
#1002=AXIS2_PLACEMENT_3D('',#1567,#1254,#1255);
#1003=AXIS2_PLACEMENT_3D('',#1569,#1256,#1257);
#1004=AXIS2_PLACEMENT_3D('',#1572,#1259,#1260);
#1005=AXIS2_PLACEMENT_3D('',#1573,#1261,#1262);
#1006=AXIS2_PLACEMENT_3D('',#1575,#1263,#1264);
#1007=AXIS2_PLACEMENT_3D('',#1576,#1265,#1266);
#1008=AXIS2_PLACEMENT_3D('',#1578,#1267,#1268);
#1009=AXIS2_PLACEMENT_3D('',#1581,#1270,#1271);
#1010=AXIS2_PLACEMENT_3D('',#1582,#1272,#1273);
#1011=AXIS2_PLACEMENT_3D('',#1584,#1274,#1275);
#1012=AXIS2_PLACEMENT_3D('',#1585,#1276,#1277);
#1013=AXIS2_PLACEMENT_3D('',#1587,#1279,#1280);
#1014=AXIS2_PLACEMENT_3D('',#1589,#1282,#1283);
#1015=AXIS2_PLACEMENT_3D('',#1591,#1285,#1286);
#1016=AXIS2_PLACEMENT_3D('',#1593,#1288,#1289);
#1017=AXIS2_PLACEMENT_3D('',#1595,#1291,#1292);
#1018=AXIS2_PLACEMENT_3D('',#1597,#1294,#1295);
#1019=AXIS2_PLACEMENT_3D('',#1601,#1298,#1299);
#1020=AXIS2_PLACEMENT_3D('',#1602,#1300,#1301);
#1021=AXIS2_PLACEMENT_3D('',#1603,#1302,#1303);
#1022=DIRECTION('axis',(0.,0.,1.));
#1023=DIRECTION('refdir',(1.,0.,0.));
#1024=DIRECTION('center_axis',(0.577350269189621,0.,-0.81649658092773));
#1025=DIRECTION('ref_axis',(-0.81649658092773,0.,-0.577350269189621));
#1026=DIRECTION('',(-0.81649658092773,0.,-0.577350269189621));
#1027=DIRECTION('',(0.,1.,0.));
#1028=DIRECTION('',(0.81649658092773,0.,0.577350269189621));
#1029=DIRECTION('',(0.,-1.,0.));
#1030=DIRECTION('center_axis',(0.,-1.,0.));
#1031=DIRECTION('ref_axis',(0.707106781186547,0.,0.707106781186548));
#1032=DIRECTION('center_axis',(0.,-1.,0.));
#1033=DIRECTION('ref_axis',(-1.,0.,0.));
#1034=DIRECTION('',(0.,1.,0.));
#1035=DIRECTION('center_axis',(0.,1.,0.));
#1036=DIRECTION('ref_axis',(-1.,0.,0.));
#1037=DIRECTION('center_axis',(0.,-1.,0.));
#1038=DIRECTION('ref_axis',(-2.22044604925031E-16,0.,-1.));
#1039=DIRECTION('',(-1.,0.,0.));
#1040=DIRECTION('',(0.,0.,1.));
#1041=DIRECTION('',(-1.,0.,0.));
#1042=DIRECTION('center_axis',(0.,-1.,0.));
#1043=DIRECTION('ref_axis',(0.707106781186548,0.,0.707106781186548));
#1044=DIRECTION('',(2.22044604925031E-16,0.,1.));
#1045=DIRECTION('',(1.,0.,-2.22044604925031E-16));
#1046=DIRECTION('',(-2.22044604925031E-16,0.,-1.));
#1047=DIRECTION('',(-0.577350269189621,0.,-0.816496580927729));
#1048=DIRECTION('center_axis',(-0.816496580927729,0.,0.577350269189621));
#1049=DIRECTION('ref_axis',(0.577350269189621,0.,0.816496580927729));
#1050=DIRECTION('',(0.,-1.,0.));
#1051=DIRECTION('',(0.577350269189621,0.,0.816496580927729));
#1052=DIRECTION('center_axis',(0.,0.,1.));
#1053=DIRECTION('ref_axis',(1.,0.,0.));
#1054=DIRECTION('',(1.,0.,0.));
#1055=DIRECTION('',(0.,1.,0.));
#1056=DIRECTION('center_axis',(0.,0.,1.));
#1057=DIRECTION('ref_axis',(0.050696148402509,-0.998714123529427,0.));
#1058=DIRECTION('center_axis',(0.,0.,-1.));
#1059=DIRECTION('ref_axis',(1.,0.,0.));
#1060=DIRECTION('center_axis',(0.,0.,-1.));
#1061=DIRECTION('ref_axis',(1.,0.,0.));
#1062=DIRECTION('center_axis',(0.,0.,-1.));
#1063=DIRECTION('ref_axis',(1.,0.,0.));
#1064=DIRECTION('center_axis',(0.,0.,-1.));
#1065=DIRECTION('ref_axis',(1.,0.,0.));
#1066=DIRECTION('center_axis',(0.,0.,-1.));
#1067=DIRECTION('ref_axis',(1.,0.,0.));
#1068=DIRECTION('center_axis',(0.,1.,0.));
#1069=DIRECTION('ref_axis',(2.22044604925031E-16,0.,1.));
#1070=DIRECTION('',(2.22044604925031E-16,0.,1.));
#1071=DIRECTION('',(1.,0.,-2.22044604925031E-16));
#1072=DIRECTION('center_axis',(0.,1.,0.));
#1073=DIRECTION('ref_axis',(0.707106781186549,0.,-0.707106781186546));
#1074=DIRECTION('',(2.22044604925031E-16,0.,1.));
#1075=DIRECTION('center_axis',(0.,-1.,0.));
#1076=DIRECTION('ref_axis',(1.,0.,-3.80647894157197E-16));
#1077=DIRECTION('',(1.,0.,0.));
#1078=DIRECTION('center_axis',(0.,1.,0.));
#1079=DIRECTION('ref_axis',(-0.707106781186549,0.,0.707106781186546));
#1080=DIRECTION('',(0.,0.,1.));
#1081=DIRECTION('center_axis',(0.,-1.,0.));
#1082=DIRECTION('ref_axis',(-0.707106781186549,0.,0.707106781186546));
#1083=DIRECTION('',(0.,-1.,0.));
#1084=DIRECTION('',(0.,1.,0.));
#1085=DIRECTION('center_axis',(0.,0.,-1.));
#1086=DIRECTION('ref_axis',(-1.,0.,0.));
#1087=DIRECTION('center_axis',(0.,0.,1.));
#1088=DIRECTION('ref_axis',(0.554700196225229,-0.832050294337844,0.));
#1089=DIRECTION('center_axis',(0.,0.,-1.));
#1090=DIRECTION('ref_axis',(0.554700196225229,-0.832050294337844,0.));
#1091=DIRECTION('center_axis',(-1.,0.,0.));
#1092=DIRECTION('ref_axis',(0.,0.707106781186549,0.707106781186546));
#1093=DIRECTION('',(1.,0.,0.));
#1094=DIRECTION('center_axis',(-1.,0.,0.));
#1095=DIRECTION('ref_axis',(0.,0.,1.));
#1096=DIRECTION('center_axis',(0.,-1.,0.));
#1097=DIRECTION('ref_axis',(0.,0.,-1.));
#1098=DIRECTION('center_axis',(6.66136479321012E-17,0.,1.));
#1099=DIRECTION('ref_axis',(1.,0.,-6.66136479321012E-17));
#1100=DIRECTION('center_axis',(0.,1.,0.));
#1101=DIRECTION('ref_axis',(0.707106781186548,0.,0.707106781186548));
#1102=DIRECTION('center_axis',(-2.22044604925031E-16,0.,-1.));
#1103=DIRECTION('ref_axis',(0.707106781186549,0.707106781186546,0.));
#1104=DIRECTION('',(-2.22044604925031E-16,0.,-1.));
#1105=DIRECTION('center_axis',(1.,0.,-2.22044604925031E-16));
#1106=DIRECTION('ref_axis',(-2.31921541753633E-16,0.,-1.));
#1107=DIRECTION('center_axis',(-1.,0.,2.22044604925031E-16));
#1108=DIRECTION('ref_axis',(1.57009245868378E-16,-0.707106781186548,0.707106781186547));
#1109=DIRECTION('center_axis',(1.,0.,-2.22044604925031E-16));
#1110=DIRECTION('ref_axis',(1.57009245868377E-16,-0.707106781186548,0.707106781186547));
#1111=DIRECTION('center_axis',(0.,-1.,0.));
#1112=DIRECTION('ref_axis',(0.707106781186549,0.,-0.707106781186546));
#1113=DIRECTION('',(0.,-1.,0.));
#1114=DIRECTION('',(0.,1.,0.));
#1115=DIRECTION('center_axis',(-1.,0.,2.22044604925031E-16));
#1116=DIRECTION('ref_axis',(2.22044604925031E-16,0.,1.));
#1117=DIRECTION('',(0.,1.,0.));
#1118=DIRECTION('center_axis',(1.,0.,-2.22044604925031E-16));
#1119=DIRECTION('ref_axis',(2.22044604925031E-16,0.,1.));
#1120=DIRECTION('center_axis',(1.,0.,-2.22044604925031E-16));
#1121=DIRECTION('ref_axis',(2.22044604925031E-16,0.,1.));
#1122=DIRECTION('center_axis',(1.,0.,-2.22044604925031E-16));
#1123=DIRECTION('ref_axis',(2.22044604925031E-16,0.,1.));
#1124=DIRECTION('center_axis',(1.,0.,-2.22044604925031E-16));
#1125=DIRECTION('ref_axis',(2.22044604925031E-16,0.,1.));
#1126=DIRECTION('center_axis',(1.,0.,-2.22044604925031E-16));
#1127=DIRECTION('ref_axis',(2.22044604925031E-16,0.,1.));
#1128=DIRECTION('center_axis',(1.,0.,-2.22044604925031E-16));
#1129=DIRECTION('ref_axis',(2.22044604925031E-16,0.,1.));
#1130=DIRECTION('center_axis',(0.,-1.,0.));
#1131=DIRECTION('ref_axis',(1.,0.,-2.22044604925031E-16));
#1132=DIRECTION('',(0.,1.,0.));
#1133=DIRECTION('center_axis',(0.,0.,1.));
#1134=DIRECTION('ref_axis',(1.,0.,0.));
#1135=DIRECTION('center_axis',(0.,0.,-1.));
#1136=DIRECTION('ref_axis',(1.,0.,0.));
#1137=DIRECTION('center_axis',(0.,0.,-1.));
#1138=DIRECTION('ref_axis',(1.,0.,0.));
#1139=DIRECTION('center_axis',(0.,0.,-1.));
#1140=DIRECTION('ref_axis',(1.,0.,0.));
#1141=DIRECTION('center_axis',(0.,0.,-1.));
#1142=DIRECTION('ref_axis',(1.,0.,0.));
#1143=DIRECTION('center_axis',(0.,0.,-1.));
#1144=DIRECTION('ref_axis',(1.,0.,0.));
#1145=DIRECTION('center_axis',(0.,0.,1.));
#1146=DIRECTION('ref_axis',(1.,0.,0.));
#1147=DIRECTION('center_axis',(0.,0.,-1.));
#1148=DIRECTION('ref_axis',(1.,0.,0.));
#1149=DIRECTION('',(0.,0.,-1.));
#1150=DIRECTION('center_axis',(0.,0.,1.));
#1151=DIRECTION('ref_axis',(1.,0.,0.));
#1152=DIRECTION('center_axis',(0.,0.,-1.));
#1153=DIRECTION('ref_axis',(1.,0.,0.));
#1154=DIRECTION('center_axis',(0.,0.,1.));
#1155=DIRECTION('ref_axis',(1.,0.,0.));
#1156=DIRECTION('center_axis',(0.,0.,-1.));
#1157=DIRECTION('ref_axis',(1.,0.,0.));
#1158=DIRECTION('',(0.,0.,-1.));
#1159=DIRECTION('center_axis',(0.,0.,1.));
#1160=DIRECTION('ref_axis',(1.,0.,0.));
#1161=DIRECTION('center_axis',(0.,0.,-1.));
#1162=DIRECTION('ref_axis',(1.,0.,0.));
#1163=DIRECTION('center_axis',(0.,0.,1.));
#1164=DIRECTION('ref_axis',(1.,0.,0.));
#1165=DIRECTION('center_axis',(0.,0.,-1.));
#1166=DIRECTION('ref_axis',(1.,0.,0.));
#1167=DIRECTION('',(0.,0.,-1.));
#1168=DIRECTION('center_axis',(0.,0.,1.));
#1169=DIRECTION('ref_axis',(1.,0.,0.));
#1170=DIRECTION('center_axis',(0.,0.,-1.));
#1171=DIRECTION('ref_axis',(1.,0.,0.));
#1172=DIRECTION('center_axis',(0.,0.,1.));
#1173=DIRECTION('ref_axis',(1.,0.,0.));
#1174=DIRECTION('center_axis',(0.,0.,-1.));
#1175=DIRECTION('ref_axis',(1.,0.,0.));
#1176=DIRECTION('',(0.,0.,-1.));
#1177=DIRECTION('center_axis',(0.,0.,1.));
#1178=DIRECTION('ref_axis',(1.,0.,0.));
#1179=DIRECTION('center_axis',(0.,0.,-1.));
#1180=DIRECTION('ref_axis',(1.,0.,0.));
#1181=DIRECTION('center_axis',(0.,0.,1.));
#1182=DIRECTION('ref_axis',(1.,0.,0.));
#1183=DIRECTION('center_axis',(0.,0.,-1.));
#1184=DIRECTION('ref_axis',(1.,0.,0.));
#1185=DIRECTION('',(0.,0.,-1.));
#1186=DIRECTION('center_axis',(0.,0.,1.));
#1187=DIRECTION('ref_axis',(1.,0.,0.));
#1188=DIRECTION('center_axis',(0.,0.,-1.));
#1189=DIRECTION('ref_axis',(1.,0.,0.));
#1190=DIRECTION('center_axis',(0.,0.,1.));
#1191=DIRECTION('ref_axis',(1.,0.,0.));
#1192=DIRECTION('',(0.,0.,-1.));
#1193=DIRECTION('center_axis',(0.,0.,1.));
#1194=DIRECTION('ref_axis',(1.,0.,0.));
#1195=DIRECTION('',(0.,0.,-1.));
#1196=DIRECTION('center_axis',(0.,0.,1.));
#1197=DIRECTION('ref_axis',(1.,0.,0.));
#1198=DIRECTION('',(0.,0.,-1.));
#1199=DIRECTION('center_axis',(0.,0.,1.));
#1200=DIRECTION('ref_axis',(1.,0.,0.));
#1201=DIRECTION('',(0.,0.,-1.));
#1202=DIRECTION('center_axis',(0.,0.,1.));
#1203=DIRECTION('ref_axis',(1.,0.,0.));
#1204=DIRECTION('',(0.,0.,-1.));
#1205=DIRECTION('center_axis',(-1.,0.,0.));
#1206=DIRECTION('ref_axis',(0.,-1.,0.));
#1207=DIRECTION('',(0.,0.,1.));
#1208=DIRECTION('center_axis',(0.,0.,1.));
#1209=DIRECTION('ref_axis',(0.050696148402509,-0.998714123529427,0.));
#1210=DIRECTION('center_axis',(-1.,0.,2.22044604925031E-16));
#1211=DIRECTION('ref_axis',(2.22044604925031E-16,0.,1.));
#1212=DIRECTION('center_axis',(1.,0.,-2.22044604925031E-16));
#1213=DIRECTION('ref_axis',(2.22044604925031E-16,0.,1.));
#1214=DIRECTION('',(-1.,0.,2.22044604925031E-16));
#1215=DIRECTION('center_axis',(1.,0.,-2.22044604925031E-16));
#1216=DIRECTION('ref_axis',(2.22044604925031E-16,0.,1.));
#1217=DIRECTION('center_axis',(-1.,0.,2.22044604925031E-16));
#1218=DIRECTION('ref_axis',(2.22044604925031E-16,0.,1.));
#1219=DIRECTION('center_axis',(1.,0.,-2.22044604925031E-16));
#1220=DIRECTION('ref_axis',(2.22044604925031E-16,0.,1.));
#1221=DIRECTION('center_axis',(-1.,0.,2.22044604925031E-16));
#1222=DIRECTION('ref_axis',(2.22044604925031E-16,0.,1.));
#1223=DIRECTION('center_axis',(1.,0.,-2.22044604925031E-16));
#1224=DIRECTION('ref_axis',(2.22044604925031E-16,0.,1.));
#1225=DIRECTION('',(-1.,0.,2.22044604925031E-16));
#1226=DIRECTION('center_axis',(1.,0.,-2.22044604925031E-16));
#1227=DIRECTION('ref_axis',(2.22044604925031E-16,0.,1.));
#1228=DIRECTION('center_axis',(-1.,0.,2.22044604925031E-16));
#1229=DIRECTION('ref_axis',(2.22044604925031E-16,0.,1.));
#1230=DIRECTION('center_axis',(1.,0.,-2.22044604925031E-16));
#1231=DIRECTION('ref_axis',(2.22044604925031E-16,0.,1.));
#1232=DIRECTION('center_axis',(-1.,0.,2.22044604925031E-16));
#1233=DIRECTION('ref_axis',(2.22044604925031E-16,0.,1.));
#1234=DIRECTION('center_axis',(1.,0.,-2.22044604925031E-16));
#1235=DIRECTION('ref_axis',(2.22044604925031E-16,0.,1.));
#1236=DIRECTION('',(-1.,0.,2.22044604925031E-16));
#1237=DIRECTION('center_axis',(1.,0.,-2.22044604925031E-16));
#1238=DIRECTION('ref_axis',(2.22044604925031E-16,0.,1.));
#1239=DIRECTION('center_axis',(-1.,0.,2.22044604925031E-16));
#1240=DIRECTION('ref_axis',(2.22044604925031E-16,0.,1.));
#1241=DIRECTION('center_axis',(1.,0.,-2.22044604925031E-16));
#1242=DIRECTION('ref_axis',(2.22044604925031E-16,0.,1.));
#1243=DIRECTION('center_axis',(-1.,0.,2.22044604925031E-16));
#1244=DIRECTION('ref_axis',(2.22044604925031E-16,0.,1.));
#1245=DIRECTION('center_axis',(1.,0.,-2.22044604925031E-16));
#1246=DIRECTION('ref_axis',(2.22044604925031E-16,0.,1.));
#1247=DIRECTION('',(-1.,0.,2.22044604925031E-16));
#1248=DIRECTION('center_axis',(1.,0.,-2.22044604925031E-16));
#1249=DIRECTION('ref_axis',(2.22044604925031E-16,0.,1.));
#1250=DIRECTION('center_axis',(-1.,0.,2.22044604925031E-16));
#1251=DIRECTION('ref_axis',(2.22044604925031E-16,0.,1.));
#1252=DIRECTION('center_axis',(1.,0.,-2.22044604925031E-16));
#1253=DIRECTION('ref_axis',(2.22044604925031E-16,0.,1.));
#1254=DIRECTION('center_axis',(-1.,0.,2.22044604925031E-16));
#1255=DIRECTION('ref_axis',(2.22044604925031E-16,0.,1.));
#1256=DIRECTION('center_axis',(1.,0.,-2.22044604925031E-16));
#1257=DIRECTION('ref_axis',(2.22044604925031E-16,0.,1.));
#1258=DIRECTION('',(-1.,0.,2.22044604925031E-16));
#1259=DIRECTION('center_axis',(1.,0.,-2.22044604925031E-16));
#1260=DIRECTION('ref_axis',(2.22044604925031E-16,0.,1.));
#1261=DIRECTION('center_axis',(-1.,0.,2.22044604925031E-16));
#1262=DIRECTION('ref_axis',(2.22044604925031E-16,0.,1.));
#1263=DIRECTION('center_axis',(1.,0.,-2.22044604925031E-16));
#1264=DIRECTION('ref_axis',(2.22044604925031E-16,0.,1.));
#1265=DIRECTION('center_axis',(-1.,0.,2.22044604925031E-16));
#1266=DIRECTION('ref_axis',(2.22044604925031E-16,0.,1.));
#1267=DIRECTION('center_axis',(1.,0.,-2.22044604925031E-16));
#1268=DIRECTION('ref_axis',(2.22044604925031E-16,0.,1.));
#1269=DIRECTION('',(-1.,0.,2.22044604925031E-16));
#1270=DIRECTION('center_axis',(1.,0.,-2.22044604925031E-16));
#1271=DIRECTION('ref_axis',(2.22044604925031E-16,0.,1.));
#1272=DIRECTION('center_axis',(-1.,0.,2.22044604925031E-16));
#1273=DIRECTION('ref_axis',(2.22044604925031E-16,0.,1.));
#1274=DIRECTION('center_axis',(1.,0.,-2.22044604925031E-16));
#1275=DIRECTION('ref_axis',(2.22044604925031E-16,0.,1.));
#1276=DIRECTION('center_axis',(-1.,0.,2.22044604925031E-16));
#1277=DIRECTION('ref_axis',(2.22044604925031E-16,0.,1.));
#1278=DIRECTION('',(-1.,0.,2.22044604925031E-16));
#1279=DIRECTION('center_axis',(-1.,0.,2.22044604925031E-16));
#1280=DIRECTION('ref_axis',(2.22044604925031E-16,0.,1.));
#1281=DIRECTION('',(-1.,0.,2.22044604925031E-16));
#1282=DIRECTION('center_axis',(-1.,0.,2.22044604925031E-16));
#1283=DIRECTION('ref_axis',(2.22044604925031E-16,0.,1.));
#1284=DIRECTION('',(-1.,0.,2.22044604925031E-16));
#1285=DIRECTION('center_axis',(-1.,0.,2.22044604925031E-16));
#1286=DIRECTION('ref_axis',(2.22044604925031E-16,0.,1.));
#1287=DIRECTION('',(-1.,0.,2.22044604925031E-16));
#1288=DIRECTION('center_axis',(-1.,0.,2.22044604925031E-16));
#1289=DIRECTION('ref_axis',(2.22044604925031E-16,0.,1.));
#1290=DIRECTION('',(-1.,0.,2.22044604925031E-16));
#1291=DIRECTION('center_axis',(-1.,0.,2.22044604925031E-16));
#1292=DIRECTION('ref_axis',(2.22044604925031E-16,0.,1.));
#1293=DIRECTION('',(-1.,0.,2.22044604925031E-16));
#1294=DIRECTION('center_axis',(2.22044604925031E-16,0.,1.));
#1295=DIRECTION('ref_axis',(0.,-1.,0.));
#1296=DIRECTION('',(0.,1.,0.));
#1297=DIRECTION('',(1.,0.,-2.22044604925031E-16));
#1298=DIRECTION('center_axis',(-1.,0.,2.22044604925031E-16));
#1299=DIRECTION('ref_axis',(6.46508659458025E-17,-0.956673880428858,0.291161615782696));
#1300=DIRECTION('center_axis',(-1.,0.,2.22044604925031E-16));
#1301=DIRECTION('ref_axis',(6.46508659458025E-17,-0.956673880428858,0.291161615782696));
#1302=DIRECTION('center_axis',(-1.,0.,2.22044604925031E-16));
#1303=DIRECTION('ref_axis',(2.22044604925031E-16,0.,1.));
#1304=CARTESIAN_POINT('',(0.,0.,0.));
#1305=CARTESIAN_POINT('Origin',(-0.916666666666673,80.,0.235702260395509));
#1306=CARTESIAN_POINT('',(-0.583333333333345,0.,0.471404520791017));
#1307=CARTESIAN_POINT('',(-1.25,0.,0.));
#1308=CARTESIAN_POINT('',(-19.5228474983079,0.,-12.920854377641));
#1309=CARTESIAN_POINT('',(-1.25,80.,0.));
#1310=CARTESIAN_POINT('',(-1.25,80.,0.));
#1311=CARTESIAN_POINT('',(-0.583333333333345,80.,0.471404520791017));
#1312=CARTESIAN_POINT('',(-0.666666666666666,80.,0.412478955692148));
#1313=CARTESIAN_POINT('',(-0.583333333333345,80.,0.471404520791017));
#1314=CARTESIAN_POINT('Origin',(0.,80.,0.));
#1315=CARTESIAN_POINT('',(0.471404520791017,80.,-0.583333333333345));
#1316=CARTESIAN_POINT('Origin',(0.,80.,0.));
#1317=CARTESIAN_POINT('',(0.471404520791017,0.,-0.583333333333345));
#1318=CARTESIAN_POINT('',(0.471404520791017,80.,-0.583333333333345));
#1319=CARTESIAN_POINT('Origin',(0.,0.,0.));
#1320=CARTESIAN_POINT('Origin',(0.,80.,0.));
#1321=CARTESIAN_POINT('',(-20.,80.,0.));
#1322=CARTESIAN_POINT('',(0.,80.,0.));
#1323=CARTESIAN_POINT('',(-20.,80.,4.50001));
#1324=CARTESIAN_POINT('',(-20.,80.,0.));
#1325=CARTESIAN_POINT('',(0.,80.,4.50001));
#1326=CARTESIAN_POINT('',(-20.,80.,4.50001));
#1327=CARTESIAN_POINT('',(4.50001,80.,-1.38777878078145E-15));
#1328=CARTESIAN_POINT('Origin',(2.73691106313441E-47,80.,1.23259516440783E-31));
#1329=CARTESIAN_POINT('',(4.50000999999999,80.,-40.));
#1330=CARTESIAN_POINT('',(4.50001,80.,-20.));
#1331=CARTESIAN_POINT('',(-8.88178419700125E-15,80.,-40.));
#1332=CARTESIAN_POINT('',(-8.88178419700125E-15,80.,-40.));
#1333=CARTESIAN_POINT('',(-2.77555756156289E-16,80.,-1.25));
#1334=CARTESIAN_POINT('',(0.,80.,0.));
#1335=CARTESIAN_POINT('',(0.412478955692148,80.,-0.666666666666666));
#1336=CARTESIAN_POINT('Origin',(0.235702260395509,80.,-0.916666666666672));
#1337=CARTESIAN_POINT('',(-2.77555756156289E-16,0.,-1.25));
#1338=CARTESIAN_POINT('',(-2.77555756156289E-16,80.,-1.25));
#1339=CARTESIAN_POINT('',(-18.443701875949,0.,-27.3333333333335));
#1340=CARTESIAN_POINT('Origin',(-40.,40.,0.));
#1341=CARTESIAN_POINT('',(-80.,0.,0.));
#1342=CARTESIAN_POINT('',(-80.,0.,0.));
#1343=CARTESIAN_POINT('',(-80.,40.,0.));
#1344=CARTESIAN_POINT('',(-80.,0.,0.));
#1345=CARTESIAN_POINT('Origin',(-83.5714285714286,110.357142857143,0.));
#1346=CARTESIAN_POINT('',(-12.65,10.,0.));
#1347=CARTESIAN_POINT('Origin',(-10.,10.,0.));
#1348=CARTESIAN_POINT('',(-72.6500010430813,30.0000004470348,0.));
#1349=CARTESIAN_POINT('Origin',(-70.0000010430813,30.0000004470348,0.));
#1350=CARTESIAN_POINT('',(-12.6500001490116,70.0000010430813,0.));
#1351=CARTESIAN_POINT('Origin',(-10.0000001490116,70.0000010430813,0.));
#1352=CARTESIAN_POINT('',(-32.6500004470348,10.0000001490116,0.));
#1353=CARTESIAN_POINT('Origin',(-30.0000004470348,10.0000001490116,0.));
#1354=CARTESIAN_POINT('',(-72.6500010430813,10.0000001490116,0.));
#1355=CARTESIAN_POINT('Origin',(-70.0000010430813,10.0000001490116,0.));
#1356=CARTESIAN_POINT('Origin',(-1.77635683940025E-14,0.,-80.));
#1357=CARTESIAN_POINT('',(-1.77635683940025E-14,0.,-80.));
#1358=CARTESIAN_POINT('',(-1.77635683940025E-14,0.,-80.));
#1359=CARTESIAN_POINT('',(4.50000999999998,0.,-80.));
#1360=CARTESIAN_POINT('',(-1.77635683940025E-14,0.,-80.));
#1361=CARTESIAN_POINT('',(6.99999999999998,0.,-77.50001));
#1362=CARTESIAN_POINT('Origin',(4.50000999999998,0.,-77.50001));
#1363=CARTESIAN_POINT('',(7.,0.,-1.55431223447522E-15));
#1364=CARTESIAN_POINT('',(6.99999999999998,0.,-80.));
#1365=CARTESIAN_POINT('',(0.,0.,7.));
#1366=CARTESIAN_POINT('Origin',(1.11022302462516E-15,0.,1.11022302462516E-15));
#1367=CARTESIAN_POINT('',(-77.50001,0.,7.));
#1368=CARTESIAN_POINT('',(-80.,0.,7.));
#1369=CARTESIAN_POINT('',(-80.,0.,4.50001));
#1370=CARTESIAN_POINT('Origin',(-77.50001,0.,4.50001));
#1371=CARTESIAN_POINT('',(-80.,0.,0.));
#1372=CARTESIAN_POINT('Origin',(-77.50001,40.,4.50001));
#1373=CARTESIAN_POINT('',(-80.,40.,4.50001));
#1374=CARTESIAN_POINT('',(-80.,40.,4.50001));
#1375=CARTESIAN_POINT('',(-77.50001,37.6625232466476,7.));
#1376=CARTESIAN_POINT('',(-77.50001,40.,7.));
#1377=CARTESIAN_POINT('Ctrl Pts',(-77.50001,37.6625232466476,7.));
#1378=CARTESIAN_POINT('Ctrl Pts',(-77.5023365898177,37.6646636213086,7.));
#1379=CARTESIAN_POINT('Ctrl Pts',(-77.5046631334761,37.6668040480348,6.9999967521749));
#1380=CARTESIAN_POINT('Ctrl Pts',(-77.7646621105755,37.9060144060351,6.99927086838425));
#1381=CARTESIAN_POINT('Ctrl Pts',(-78.0229807615425,38.1448674945999,6.95871240021352));
#1382=CARTESIAN_POINT('Ctrl Pts',(-78.5127865126267,38.5999403394938,6.79960245051257));
#1383=CARTESIAN_POINT('Ctrl Pts',(-78.7474770678666,38.8190603133637,6.68305306856779));
#1384=CARTESIAN_POINT('Ctrl Pts',(-79.1962004387936,39.2397405761982,6.35862307967877));
#1385=CARTESIAN_POINT('Ctrl Pts',(-79.4105210476998,39.4417059782772,6.14326781410648));
#1386=CARTESIAN_POINT('Ctrl Pts',(-79.7185342274509,39.7328538881033,5.67748579846772));
#1387=CARTESIAN_POINT('Ctrl Pts',(-79.8279477105339,39.8366152151381,5.44855667019473));
#1388=CARTESIAN_POINT('Ctrl Pts',(-79.9656387155517,39.9673196463057,4.97360703855225));
#1389=CARTESIAN_POINT('Ctrl Pts',(-80.,40.,4.73946193173475));
#1390=CARTESIAN_POINT('Ctrl Pts',(-80.,40.,4.50001));
#1391=CARTESIAN_POINT('Origin',(-83.5714285714286,110.357142857143,4.50001));
#1392=CARTESIAN_POINT('',(-18.4424898099829,77.50001,7.));
#1393=CARTESIAN_POINT('Origin',(-83.5714285714286,110.357142857143,7.));
#1394=CARTESIAN_POINT('Ctrl Pts',(-18.4424898099829,77.50001,7.));
#1395=CARTESIAN_POINT('Ctrl Pts',(-18.4439376809291,77.5023621306387,7.));
#1396=CARTESIAN_POINT('Ctrl Pts',(-18.4453855869579,77.5047142398361,6.9999966804756));
#1397=CARTESIAN_POINT('Ctrl Pts',(-18.5785452382446,77.7210235782225,6.99938613638782));
#1398=CARTESIAN_POINT('Ctrl Pts',(-18.7105653574722,77.9348219164349,6.97131567866739));
#1399=CARTESIAN_POINT('Ctrl Pts',(-18.9666285854461,78.3482717909156,6.86125359415139));
#1400=CARTESIAN_POINT('Ctrl Pts',(-19.0908133770888,78.5481710723448,6.78005537989102));
#1401=CARTESIAN_POINT('Ctrl Pts',(-19.3760130685406,79.006041117033,6.51930831170302));
#1402=CARTESIAN_POINT('Ctrl Pts',(-19.529897707022,79.2520086967147,6.31312006442888));
#1403=CARTESIAN_POINT('Ctrl Pts',(-19.7669337646432,79.6298995733242,5.8385635650258));
#1404=CARTESIAN_POINT('Ctrl Pts',(-19.8554994001408,79.770650402468,5.58648259024218));
#1405=CARTESIAN_POINT('Ctrl Pts',(-19.9708074343041,79.9537372637876,5.05079313617342));
#1406=CARTESIAN_POINT('Ctrl Pts',(-20.,80.,4.7778163960525));
#1407=CARTESIAN_POINT('Ctrl Pts',(-20.,80.,4.50001));
#1408=CARTESIAN_POINT('Origin',(-83.5714285714286,110.357142857143,4.50001));
#1409=CARTESIAN_POINT('Origin',(-20.,77.50001,4.50001));
#1410=CARTESIAN_POINT('',(0.,77.50001,7.));
#1411=CARTESIAN_POINT('',(-20.,77.50001,7.));
#1412=CARTESIAN_POINT('Origin',(0.,77.50001,4.50001));
#1413=CARTESIAN_POINT('Origin',(2.73691106313441E-47,77.50001,1.23259516440783E-31));
#1414=CARTESIAN_POINT('',(7.,77.50001,-1.55431223447522E-15));
#1415=CARTESIAN_POINT('Origin',(4.50001,77.50001,-1.38777878078145E-15));
#1416=CARTESIAN_POINT('Origin',(2.73691106313441E-47,77.50001,1.23259516440783E-31));
#1417=CARTESIAN_POINT('Origin',(4.50001,77.50001,-20.));
#1418=CARTESIAN_POINT('',(6.99999999999999,77.50001,-38.176568457963));
#1419=CARTESIAN_POINT('',(7.,77.50001,-20.));
#1420=CARTESIAN_POINT('Ctrl Pts',(6.99999999999999,77.50001,-38.176568457963));
#1421=CARTESIAN_POINT('Ctrl Pts',(6.99999999999999,77.5023473315854,-38.17824705023));
#1422=CARTESIAN_POINT('Ctrl Pts',(6.99999672211552,77.5046846298274,-38.1799256897963));
#1423=CARTESIAN_POINT('Ctrl Pts',(6.99934881556862,77.7356856892596,-38.3458368996369));
#1424=CARTESIAN_POINT('Ctrl Pts',(6.96733487340722,77.9643443847406,-38.5107609352591));
#1425=CARTESIAN_POINT('Ctrl Pts',(6.84180939882623,78.4039396908963,-38.8291199847824));
#1426=CARTESIAN_POINT('Ctrl Pts',(6.74937851730086,78.6158276643477,-38.983217197303));
#1427=CARTESIAN_POINT('Ctrl Pts',(6.46733409635673,79.0719354178667,-39.3161201276126));
#1428=CARTESIAN_POINT('Ctrl Pts',(6.25695570938077,79.3079030730077,-39.4892873555388));
#1429=CARTESIAN_POINT('Ctrl Pts',(5.78353508963169,79.6618423782644,-39.7498693879799));
#1430=CARTESIAN_POINT('Ctrl Pts',(5.53899673557586,79.791470884439,-39.8456632673237));
#1431=CARTESIAN_POINT('Ctrl Pts',(5.02381839137094,79.9580877948322,-39.9689239490294));
#1432=CARTESIAN_POINT('Ctrl Pts',(4.76445287258261,80.,-40.));
#1433=CARTESIAN_POINT('Ctrl Pts',(4.50000999999999,80.,-40.));
#1434=CARTESIAN_POINT('Origin',(4.50000999999998,97.5,-97.5));
#1435=CARTESIAN_POINT('',(4.50000999999998,40.,-80.));
#1436=CARTESIAN_POINT('Origin',(4.50000999999998,97.5,-97.5));
#1437=CARTESIAN_POINT('',(6.99999999999998,38.176568457963,-77.50001));
#1438=CARTESIAN_POINT('Origin',(6.99999999999998,97.5,-97.5));
#1439=CARTESIAN_POINT('Ctrl Pts',(6.99999999999998,38.176568457963,-77.50001));
#1440=CARTESIAN_POINT('Ctrl Pts',(6.99999999999998,38.1782470502298,-77.5023473315852));
#1441=CARTESIAN_POINT('Ctrl Pts',(6.99999672211551,38.1799256897962,-77.5046846298273));
#1442=CARTESIAN_POINT('Ctrl Pts',(6.99934881556866,38.3458368996314,-77.7356856892524));
#1443=CARTESIAN_POINT('Ctrl Pts',(6.96733487340763,38.5107609352579,-77.9643443847391));
#1444=CARTESIAN_POINT('Ctrl Pts',(6.84180939882627,38.8291199847823,-78.4039396908962));
#1445=CARTESIAN_POINT('Ctrl Pts',(6.74937851730087,38.983217197303,-78.6158276643477));
#1446=CARTESIAN_POINT('Ctrl Pts',(6.46733409635671,39.3161201276126,-79.0719354178667));
#1447=CARTESIAN_POINT('Ctrl Pts',(6.25695570938074,39.4892873555388,-79.3079030730077));
#1448=CARTESIAN_POINT('Ctrl Pts',(5.78353508963173,39.7498693879799,-79.6618423782643));
#1449=CARTESIAN_POINT('Ctrl Pts',(5.53899673557588,39.8456632673237,-79.791470884439));
#1450=CARTESIAN_POINT('Ctrl Pts',(5.02381839137095,39.9689239490294,-79.9580877948322));
#1451=CARTESIAN_POINT('Ctrl Pts',(4.76445287258261,40.,-80.));
#1452=CARTESIAN_POINT('Ctrl Pts',(4.50000999999998,40.,-80.));
#1453=CARTESIAN_POINT('Origin',(4.50000999999998,40.,-77.50001));
#1454=CARTESIAN_POINT('',(6.99999999999998,40.,-77.50001));
#1455=CARTESIAN_POINT('',(4.50000999999998,40.,-80.));
#1456=CARTESIAN_POINT('Origin',(6.99999999999999,40.,-40.));
#1457=CARTESIAN_POINT('',(7.,0.,-1.55431223447522E-15));
#1458=CARTESIAN_POINT('',(6.99999999999998,10.0000001490116,-75.0000010430813));
#1459=CARTESIAN_POINT('Origin',(6.99999999999998,10.0000001490116,-70.0000010430813));
#1460=CARTESIAN_POINT('',(6.99999999999999,10.0000001490116,-35.0000004470348));
#1461=CARTESIAN_POINT('Origin',(6.99999999999999,10.0000001490116,-30.0000004470348));
#1462=CARTESIAN_POINT('',(6.99999999999998,30.0000004470348,-75.0000010430813));
#1463=CARTESIAN_POINT('Origin',(6.99999999999998,30.0000004470348,-70.0000010430813));
#1464=CARTESIAN_POINT('',(7.,70.0000010430813,-15.0000001490116));
#1465=CARTESIAN_POINT('Origin',(7.,70.0000010430813,-10.0000001490116));
#1466=CARTESIAN_POINT('',(6.99999999999999,70.0000010430813,-35.));
#1467=CARTESIAN_POINT('Origin',(6.99999999999999,70.0000010430813,-30.));
#1468=CARTESIAN_POINT('',(7.,10.,-15.));
#1469=CARTESIAN_POINT('Origin',(7.,10.,-10.));
#1470=CARTESIAN_POINT('Origin',(2.73691106313441E-47,40.,1.23259516440783E-31));
#1471=CARTESIAN_POINT('',(0.,0.,7.));
#1472=CARTESIAN_POINT('Origin',(-40.,40.,7.));
#1473=CARTESIAN_POINT('',(-15.0000001490116,70.0000010430813,7.));
#1474=CARTESIAN_POINT('Origin',(-10.0000001490116,70.0000010430813,7.));
#1475=CARTESIAN_POINT('',(-75.0000010430813,30.0000004470348,7.));
#1476=CARTESIAN_POINT('Origin',(-70.0000010430813,30.0000004470348,7.));
#1477=CARTESIAN_POINT('',(-35.0000004470348,10.0000001490116,7.));
#1478=CARTESIAN_POINT('Origin',(-30.0000004470348,10.0000001490116,7.));
#1479=CARTESIAN_POINT('',(-15.,10.,7.));
#1480=CARTESIAN_POINT('Origin',(-10.,10.,7.));
#1481=CARTESIAN_POINT('',(-75.0000010430813,10.0000001490116,7.));
#1482=CARTESIAN_POINT('Origin',(-70.0000010430813,10.0000001490116,7.));
#1483=CARTESIAN_POINT('Origin',(-70.0000010430813,10.0000001490116,0.));
#1484=CARTESIAN_POINT('',(-72.6500010430813,10.0000001490116,2.));
#1485=CARTESIAN_POINT('Origin',(-70.0000010430813,10.0000001490116,2.));
#1486=CARTESIAN_POINT('',(-72.6500010430813,10.0000001490116,0.));
#1487=CARTESIAN_POINT('Origin',(-70.0000010430813,10.0000001490116,2.));
#1488=CARTESIAN_POINT('',(-75.0000010430813,10.0000001490116,2.));
#1489=CARTESIAN_POINT('Origin',(-70.0000010430813,10.0000001490116,2.));
#1490=CARTESIAN_POINT('Origin',(-30.0000004470348,10.0000001490116,0.));
#1491=CARTESIAN_POINT('',(-32.6500004470348,10.0000001490116,2.));
#1492=CARTESIAN_POINT('Origin',(-30.0000004470348,10.0000001490116,2.));
#1493=CARTESIAN_POINT('',(-32.6500004470348,10.0000001490116,0.));
#1494=CARTESIAN_POINT('Origin',(-30.0000004470348,10.0000001490116,2.));
#1495=CARTESIAN_POINT('',(-35.0000004470348,10.0000001490116,2.));
#1496=CARTESIAN_POINT('Origin',(-30.0000004470348,10.0000001490116,2.));
#1497=CARTESIAN_POINT('Origin',(-10.0000001490116,70.0000010430813,0.));
#1498=CARTESIAN_POINT('',(-12.6500001490116,70.0000010430813,2.));
#1499=CARTESIAN_POINT('Origin',(-10.0000001490116,70.0000010430813,2.));
#1500=CARTESIAN_POINT('',(-12.6500001490116,70.0000010430813,0.));
#1501=CARTESIAN_POINT('Origin',(-10.0000001490116,70.0000010430813,2.));
#1502=CARTESIAN_POINT('',(-15.0000001490116,70.0000010430813,2.));
#1503=CARTESIAN_POINT('Origin',(-10.0000001490116,70.0000010430813,2.));
#1504=CARTESIAN_POINT('Origin',(-70.0000010430813,30.0000004470348,0.));
#1505=CARTESIAN_POINT('',(-72.6500010430813,30.0000004470348,2.));
#1506=CARTESIAN_POINT('Origin',(-70.0000010430813,30.0000004470348,2.));
#1507=CARTESIAN_POINT('',(-72.6500010430813,30.0000004470348,0.));
#1508=CARTESIAN_POINT('Origin',(-70.0000010430813,30.0000004470348,2.));
#1509=CARTESIAN_POINT('',(-75.0000010430813,30.0000004470348,2.));
#1510=CARTESIAN_POINT('Origin',(-70.0000010430813,30.0000004470348,2.));
#1511=CARTESIAN_POINT('Origin',(-10.,10.,0.));
#1512=CARTESIAN_POINT('',(-12.65,10.,2.));
#1513=CARTESIAN_POINT('Origin',(-10.,10.,2.));
#1514=CARTESIAN_POINT('',(-12.65,10.,0.));
#1515=CARTESIAN_POINT('Origin',(-10.,10.,2.));
#1516=CARTESIAN_POINT('',(-15.,10.,2.));
#1517=CARTESIAN_POINT('Origin',(-10.,10.,2.));
#1518=CARTESIAN_POINT('Origin',(-10.0000001490116,70.0000010430813,0.));
#1519=CARTESIAN_POINT('',(-15.0000001490116,70.0000010430813,0.));
#1520=CARTESIAN_POINT('Origin',(-70.0000010430813,30.0000004470348,0.));
#1521=CARTESIAN_POINT('',(-75.0000010430813,30.0000004470348,0.));
#1522=CARTESIAN_POINT('Origin',(-30.0000004470348,10.0000001490116,0.));
#1523=CARTESIAN_POINT('',(-35.0000004470348,10.0000001490116,0.));
#1524=CARTESIAN_POINT('Origin',(-10.,10.,0.));
#1525=CARTESIAN_POINT('',(-15.,10.,0.));
#1526=CARTESIAN_POINT('Origin',(-70.0000010430813,10.0000001490116,0.));
#1527=CARTESIAN_POINT('',(-75.0000010430813,10.0000001490116,0.));
#1528=CARTESIAN_POINT('Origin',(-80.,40.,0.));
#1529=CARTESIAN_POINT('',(-80.,40.,0.));
#1530=CARTESIAN_POINT('Origin',(-83.5714285714286,110.357142857143,0.));
#1531=CARTESIAN_POINT('Origin',(-2.22044604925031E-15,10.,-10.));
#1532=CARTESIAN_POINT('',(2.,10.,-12.65));
#1533=CARTESIAN_POINT('Origin',(2.,10.,-10.));
#1534=CARTESIAN_POINT('',(-2.77555756156289E-15,10.,-12.65));
#1535=CARTESIAN_POINT('',(-2.80886425230165E-15,10.,-12.65));
#1536=CARTESIAN_POINT('Origin',(-2.22044604925031E-15,10.,-10.));
#1537=CARTESIAN_POINT('Origin',(2.,10.,-10.));
#1538=CARTESIAN_POINT('',(2.,10.,-15.));
#1539=CARTESIAN_POINT('Origin',(2.,10.,-10.));
#1540=CARTESIAN_POINT('Origin',(-1.55431223447522E-14,30.0000004470348,
-70.0000010430813));
#1541=CARTESIAN_POINT('',(1.99999999999998,30.0000004470348,-72.6500010430813));
#1542=CARTESIAN_POINT('Origin',(1.99999999999998,30.0000004470348,-70.0000010430813));
#1543=CARTESIAN_POINT('',(-1.60982338570648E-14,30.0000004470348,-72.6500010430813));
#1544=CARTESIAN_POINT('',(-1.61315405478035E-14,30.0000004470348,-72.6500010430813));
#1545=CARTESIAN_POINT('Origin',(-1.55431223447522E-14,30.0000004470348,
-70.0000010430813));
#1546=CARTESIAN_POINT('Origin',(1.99999999999998,30.0000004470348,-70.0000010430813));
#1547=CARTESIAN_POINT('',(1.99999999999998,30.0000004470348,-75.0000010430813));
#1548=CARTESIAN_POINT('Origin',(1.99999999999998,30.0000004470348,-70.0000010430813));
#1549=CARTESIAN_POINT('Origin',(-6.66133814775094E-15,70.0000010430813,
-30.));
#1550=CARTESIAN_POINT('',(1.99999999999999,70.0000010430813,-32.65));
#1551=CARTESIAN_POINT('Origin',(1.99999999999999,70.0000010430813,-30.));
#1552=CARTESIAN_POINT('',(-7.21644966006352E-15,70.0000010430813,-32.65));
#1553=CARTESIAN_POINT('',(-7.24975635080227E-15,70.0000010430813,-32.65));
#1554=CARTESIAN_POINT('Origin',(-6.66133814775094E-15,70.0000010430813,
-30.));
#1555=CARTESIAN_POINT('Origin',(1.99999999999999,70.0000010430813,-30.));
#1556=CARTESIAN_POINT('',(1.99999999999999,70.0000010430813,-35.));
#1557=CARTESIAN_POINT('Origin',(1.99999999999999,70.0000010430813,-30.));
#1558=CARTESIAN_POINT('Origin',(-1.55431223447522E-14,10.0000001490116,
-70.0000010430813));
#1559=CARTESIAN_POINT('',(1.99999999999998,10.0000001490116,-72.6500010430813));
#1560=CARTESIAN_POINT('Origin',(1.99999999999998,10.0000001490116,-70.0000010430813));
#1561=CARTESIAN_POINT('',(-1.60982338570648E-14,10.0000001490116,-72.6500010430813));
#1562=CARTESIAN_POINT('',(-1.61315405478035E-14,10.0000001490116,-72.6500010430813));
#1563=CARTESIAN_POINT('Origin',(-1.55431223447522E-14,10.0000001490116,
-70.0000010430813));
#1564=CARTESIAN_POINT('Origin',(1.99999999999998,10.0000001490116,-70.0000010430813));
#1565=CARTESIAN_POINT('',(1.99999999999998,10.0000001490116,-75.0000010430813));
#1566=CARTESIAN_POINT('Origin',(1.99999999999998,10.0000001490116,-70.0000010430813));
#1567=CARTESIAN_POINT('Origin',(-6.66133814775094E-15,10.0000001490116,
-30.0000004470348));
#1568=CARTESIAN_POINT('',(1.99999999999999,10.0000001490116,-32.6500004470348));
#1569=CARTESIAN_POINT('Origin',(1.99999999999999,10.0000001490116,-30.0000004470348));
#1570=CARTESIAN_POINT('',(-7.21644966006352E-15,10.0000001490116,-32.6500004470348));
#1571=CARTESIAN_POINT('',(-7.24975635080227E-15,10.0000001490116,-32.6500004470348));
#1572=CARTESIAN_POINT('Origin',(-6.66133814775094E-15,10.0000001490116,
-30.0000004470348));
#1573=CARTESIAN_POINT('Origin',(1.99999999999999,10.0000001490116,-30.0000004470348));
#1574=CARTESIAN_POINT('',(1.99999999999999,10.0000001490116,-35.0000004470348));
#1575=CARTESIAN_POINT('Origin',(1.99999999999999,10.0000001490116,-30.0000004470348));
#1576=CARTESIAN_POINT('Origin',(-2.22044604925031E-15,70.0000010430813,
-10.0000001490116));
#1577=CARTESIAN_POINT('',(2.,70.0000010430813,-12.6500001490116));
#1578=CARTESIAN_POINT('Origin',(2.,70.0000010430813,-10.0000001490116));
#1579=CARTESIAN_POINT('',(-2.77555756156289E-15,70.0000010430813,-12.6500001490116));
#1580=CARTESIAN_POINT('',(-2.80886425230165E-15,70.0000010430813,-12.6500001490116));
#1581=CARTESIAN_POINT('Origin',(-2.22044604925031E-15,70.0000010430813,
-10.0000001490116));
#1582=CARTESIAN_POINT('Origin',(2.,70.0000010430813,-10.0000001490116));
#1583=CARTESIAN_POINT('',(2.,70.0000010430813,-15.0000001490116));
#1584=CARTESIAN_POINT('Origin',(2.,70.0000010430813,-10.0000001490116));
#1585=CARTESIAN_POINT('Origin',(-1.55431223447522E-14,10.0000001490116,
-70.0000010430813));
#1586=CARTESIAN_POINT('',(-1.66533453693773E-14,10.0000001490116,-75.0000010430813));
#1587=CARTESIAN_POINT('Origin',(-6.66133814775094E-15,10.0000001490116,
-30.0000004470348));
#1588=CARTESIAN_POINT('',(-7.7715611723761E-15,10.0000001490116,-35.0000004470348));
#1589=CARTESIAN_POINT('Origin',(-1.55431223447522E-14,30.0000004470348,
-70.0000010430813));
#1590=CARTESIAN_POINT('',(-1.66533453693773E-14,30.0000004470348,-75.0000010430813));
#1591=CARTESIAN_POINT('Origin',(-2.22044604925031E-15,70.0000010430813,
-10.0000001490116));
#1592=CARTESIAN_POINT('',(-3.33066907387547E-15,70.0000010430813,-15.0000001490116));
#1593=CARTESIAN_POINT('Origin',(-6.66133814775094E-15,70.0000010430813,
-30.));
#1594=CARTESIAN_POINT('',(-7.7715611723761E-15,70.0000010430813,-35.));
#1595=CARTESIAN_POINT('Origin',(-2.22044604925031E-15,10.,-10.));
#1596=CARTESIAN_POINT('',(-3.33066907387547E-15,10.,-15.));
#1597=CARTESIAN_POINT('Origin',(-1.77635683940025E-14,40.,-80.));
#1598=CARTESIAN_POINT('',(-1.77635683940025E-14,40.,-80.));
#1599=CARTESIAN_POINT('',(-1.77635683940025E-14,0.,-80.));
#1600=CARTESIAN_POINT('',(-1.77635683940025E-14,40.,-80.));
#1601=CARTESIAN_POINT('Origin',(-2.16493489801906E-14,97.5,-97.5));
#1602=CARTESIAN_POINT('Origin',(-2.16493489801906E-14,97.5,-97.5));
#1603=CARTESIAN_POINT('Origin',(-8.88178419700125E-15,40.,-40.));
#1604=UNCERTAINTY_MEASURE_WITH_UNIT(LENGTH_MEASURE(0.01),#1608,
'DISTANCE_ACCURACY_VALUE',
'Maximum model space distance between geometric entities at asserted c
onnectivities');
#1605=UNCERTAINTY_MEASURE_WITH_UNIT(LENGTH_MEASURE(0.01),#1608,
'DISTANCE_ACCURACY_VALUE',
'Maximum model space distance between geometric entities at asserted c
onnectivities');
#1606=(
GEOMETRIC_REPRESENTATION_CONTEXT(3)
GLOBAL_UNCERTAINTY_ASSIGNED_CONTEXT((#1604))
GLOBAL_UNIT_ASSIGNED_CONTEXT((#1608,#1610,#1611))
REPRESENTATION_CONTEXT('','3D')
);
#1607=(
GEOMETRIC_REPRESENTATION_CONTEXT(3)
GLOBAL_UNCERTAINTY_ASSIGNED_CONTEXT((#1605))
GLOBAL_UNIT_ASSIGNED_CONTEXT((#1608,#1610,#1611))
REPRESENTATION_CONTEXT('','3D')
);
#1608=(
LENGTH_UNIT()
NAMED_UNIT(*)
SI_UNIT(.MILLI.,.METRE.)
);
#1609=(
LENGTH_UNIT()
NAMED_UNIT(*)
SI_UNIT($,.METRE.)
);
#1610=(
NAMED_UNIT(*)
PLANE_ANGLE_UNIT()
SI_UNIT($,.RADIAN.)
);
#1611=(
NAMED_UNIT(*)
SI_UNIT($,.STERADIAN.)
SOLID_ANGLE_UNIT()
);
#1612=SHAPE_DEFINITION_REPRESENTATION(#1613,#1614);
#1613=PRODUCT_DEFINITION_SHAPE('',$,#1616);
#1614=SHAPE_REPRESENTATION('',(#908),#1606);
#1615=PRODUCT_DEFINITION_CONTEXT('part definition',#1620,'design');
#1616=PRODUCT_DEFINITION('Duender Lower Outside Bracket',
'Duender Lower Outside Bracket v2',#1617,#1615);
#1617=PRODUCT_DEFINITION_FORMATION('',$,#1622);
#1618=PRODUCT_RELATED_PRODUCT_CATEGORY(
'Duender Lower Outside Bracket v2','Duender Lower Outside Bracket v2',(#1622));
#1619=APPLICATION_PROTOCOL_DEFINITION('international standard',
'automotive_design',2009,#1620);
#1620=APPLICATION_CONTEXT(
'Core Data for Automotive Mechanical Design Process');
#1621=PRODUCT_CONTEXT('part definition',#1620,'mechanical');
#1622=PRODUCT('Duender Lower Outside Bracket',
'Duender Lower Outside Bracket v2',$,(#1621));
#1623=PRESENTATION_STYLE_ASSIGNMENT((#1624));
#1624=SURFACE_STYLE_USAGE(.BOTH.,#1625);
#1625=SURFACE_SIDE_STYLE('',(#1626));
#1626=SURFACE_STYLE_FILL_AREA(#1627);
#1627=FILL_AREA_STYLE('Steel - Satin',(#1628));
#1628=FILL_AREA_STYLE_COLOUR('Steel - Satin',#1629);
#1629=COLOUR_RGB('Steel - Satin',0.627450980392157,0.627450980392157,0.627450980392157);
ENDSEC;
END-ISO-10303-21;
